<?xml version="1.0" encoding="UTF-8" standalone="no"?><svg xmlns="http://www.w3.org/2000/svg" xmlns:xlink="http://www.w3.org/1999/xlink" contentScriptType="application/ecmascript" contentStyleType="text/css" height="414px" preserveAspectRatio="none" style="width:1287px;height:414px;background:#FFFFFF;" version="1.1" viewBox="0 0 1287 414" width="1287px" zoomAndPan="magnify"><defs><filter height="300%" id="f1j7r0crquu9ri" width="300%" x="-1" y="-1"><feGaussianBlur result="blurOut" stdDeviation="2.0"/><feColorMatrix in="blurOut" result="blurOut2" type="matrix" values="0 0 0 0 0 0 0 0 0 0 0 0 0 0 0 0 0 0 .4 0"/><feOffset dx="4.0" dy="4.0" in="blurOut2" result="blurOut3"/><feBlend in="SourceGraphic" in2="blurOut3" mode="normal"/></filter></defs><g><!--MD5=[2489661a9cf13ef656dc89257e4e689d]
class FabricaDeRemetentes--><rect codeLine="44" fill="#FEFECE" filter="url(#f1j7r0crquu9ri)" height="73.9102" id="FabricaDeRemetentes" style="stroke:#A80036;stroke-width:1.5;" width="203" x="291" y="154"/><ellipse cx="326.25" cy="170" fill="#B4A7E5" rx="11" ry="11" style="stroke:#A80036;stroke-width:1.0;"/><path d="M322.6777,166.2651 L322.6777,164.1069 L330.0571,164.1069 L330.0571,166.2651 L327.5918,166.2651 L327.5918,174.3418 L330.0571,174.3418 L330.0571,176.5 L322.6777,176.5 L322.6777,174.3418 L325.1431,174.3418 L325.1431,166.2651 Z " fill="#000000"/><text fill="#000000" font-family="sans-serif" font-size="12" font-style="italic" lengthAdjust="spacing" textLength="126" x="344.75" y="174.5352">FabricaDeRemetentes</text><line style="stroke:#A80036;stroke-width:1.5;" x1="292" x2="493" y1="186" y2="186"/><line style="stroke:#A80036;stroke-width:1.5;" x1="292" x2="493" y1="194" y2="194"/><ellipse cx="302" cy="205" fill="#84BE84" rx="3" ry="3" style="stroke:#038048;stroke-width:1.0;"/><text fill="#000000" font-family="sans-serif" font-size="11" lengthAdjust="spacing" textLength="151" x="311" y="208.6348">criarRemetente(): Remetente</text><ellipse cx="302" cy="217.9551" fill="#84BE84" rx="3" ry="3" style="stroke:#038048;stroke-width:1.0;"/><text fill="#000000" font-family="sans-serif" font-size="11" lengthAdjust="spacing" textLength="177" x="311" y="221.5898">criarPacote(String dados): Pacote</text><!--MD5=[7426e7e0495010303d44cf4bce060ca3]
class FabricaDeRemetentesHTTP--><rect codeLine="49" fill="#FEFECE" filter="url(#f1j7r0crquu9ri)" height="73.9102" id="FabricaDeRemetentesHTTP" style="stroke:#A80036;stroke-width:1.5;" width="203" x="800" y="7"/><ellipse cx="820.85" cy="23" fill="#ADD1B2" rx="11" ry="11" style="stroke:#A80036;stroke-width:1.0;"/><path d="M823.3231,29.1431 Q822.7421,29.4419 822.1029,29.5913 Q821.4638,29.7407 820.7582,29.7407 Q818.2514,29.7407 816.9315,28.0889 Q815.6117,26.437 815.6117,23.3159 Q815.6117,20.1865 816.9315,18.5347 Q818.2514,16.8828 820.7582,16.8828 Q821.4638,16.8828 822.1112,17.0322 Q822.7587,17.1816 823.3231,17.4805 L823.3231,20.2031 Q822.6923,19.6221 822.0988,19.3523 Q821.5053,19.0825 820.8744,19.0825 Q819.5297,19.0825 818.8449,20.1492 Q818.1601,21.2158 818.1601,23.3159 Q818.1601,25.4077 818.8449,26.4744 Q819.5297,27.541 820.8744,27.541 Q821.5053,27.541 822.0988,27.2712 Q822.6923,27.0015 823.3231,26.4204 Z " fill="#000000"/><text fill="#000000" font-family="sans-serif" font-size="12" lengthAdjust="spacing" textLength="158" x="836.15" y="27.5352">FabricaDeRemetentesHTTP</text><line style="stroke:#A80036;stroke-width:1.5;" x1="801" x2="1002" y1="39" y2="39"/><line style="stroke:#A80036;stroke-width:1.5;" x1="801" x2="1002" y1="47" y2="47"/><ellipse cx="811" cy="58" fill="#84BE84" rx="3" ry="3" style="stroke:#038048;stroke-width:1.0;"/><text fill="#000000" font-family="sans-serif" font-size="11" lengthAdjust="spacing" textLength="151" x="820" y="61.6348">criarRemetente(): Remetente</text><ellipse cx="811" cy="70.9551" fill="#84BE84" rx="3" ry="3" style="stroke:#038048;stroke-width:1.0;"/><text fill="#000000" font-family="sans-serif" font-size="11" lengthAdjust="spacing" textLength="177" x="820" y="74.5898">criarPacote(String dados): Pacote</text><!--MD5=[a9edef262474f02b5f0d85a3e798950d]
class FabricaDeRemetentesCOAP--><rect codeLine="54" fill="#FEFECE" filter="url(#f1j7r0crquu9ri)" height="73.9102" id="FabricaDeRemetentesCOAP" style="stroke:#A80036;stroke-width:1.5;" width="203" x="291" y="7"/><ellipse cx="311.85" cy="23" fill="#ADD1B2" rx="11" ry="11" style="stroke:#A80036;stroke-width:1.0;"/><path d="M314.3231,29.1431 Q313.7421,29.4419 313.1029,29.5913 Q312.4638,29.7407 311.7582,29.7407 Q309.2514,29.7407 307.9315,28.0889 Q306.6117,26.437 306.6117,23.3159 Q306.6117,20.1865 307.9315,18.5347 Q309.2514,16.8828 311.7582,16.8828 Q312.4638,16.8828 313.1112,17.0322 Q313.7587,17.1816 314.3231,17.4805 L314.3231,20.2031 Q313.6923,19.6221 313.0988,19.3523 Q312.5053,19.0825 311.8744,19.0825 Q310.5297,19.0825 309.8449,20.1492 Q309.1601,21.2158 309.1601,23.3159 Q309.1601,25.4077 309.8449,26.4744 Q310.5297,27.541 311.8744,27.541 Q312.5053,27.541 313.0988,27.2712 Q313.6923,27.0015 314.3231,26.4204 Z " fill="#000000"/><text fill="#000000" font-family="sans-serif" font-size="12" lengthAdjust="spacing" textLength="158" x="327.15" y="27.5352">FabricaDeRemetentesCOAP</text><line style="stroke:#A80036;stroke-width:1.5;" x1="292" x2="493" y1="39" y2="39"/><line style="stroke:#A80036;stroke-width:1.5;" x1="292" x2="493" y1="47" y2="47"/><ellipse cx="302" cy="58" fill="#84BE84" rx="3" ry="3" style="stroke:#038048;stroke-width:1.0;"/><text fill="#000000" font-family="sans-serif" font-size="11" lengthAdjust="spacing" textLength="151" x="311" y="61.6348">criarRemetente(): Remetente</text><ellipse cx="302" cy="70.9551" fill="#84BE84" rx="3" ry="3" style="stroke:#038048;stroke-width:1.0;"/><text fill="#000000" font-family="sans-serif" font-size="11" lengthAdjust="spacing" textLength="177" x="311" y="74.5898">criarPacote(String dados): Pacote</text><!--MD5=[e73472e7a53cfeb74920d5aed4e6c4a7]
class Remetente--><rect codeLine="59" fill="#FEFECE" filter="url(#f1j7r0crquu9ri)" height="99.8203" id="Remetente" style="stroke:#A80036;stroke-width:1.5;" width="249" x="256" y="301"/><ellipse cx="345.25" cy="317" fill="#B4A7E5" rx="11" ry="11" style="stroke:#A80036;stroke-width:1.0;"/><path d="M341.6777,313.2651 L341.6777,311.1069 L349.0571,311.1069 L349.0571,313.2651 L346.5918,313.2651 L346.5918,321.3418 L349.0571,321.3418 L349.0571,323.5 L341.6777,323.5 L341.6777,321.3418 L344.1431,321.3418 L344.1431,313.2651 Z " fill="#000000"/><text fill="#000000" font-family="sans-serif" font-size="12" font-style="italic" lengthAdjust="spacing" textLength="62" x="365.75" y="321.5352">Remetente</text><line style="stroke:#A80036;stroke-width:1.5;" x1="257" x2="504" y1="333" y2="333"/><line style="stroke:#A80036;stroke-width:1.5;" x1="257" x2="504" y1="341" y2="341"/><ellipse cx="267" cy="352" fill="#84BE84" rx="3" ry="3" style="stroke:#038048;stroke-width:1.0;"/><text fill="#000000" font-family="sans-serif" font-size="11" lengthAdjust="spacing" textLength="223" x="276" y="355.6348">connect(String: enderecoDeDestino): void</text><ellipse cx="267" cy="364.9551" fill="#84BE84" rx="3" ry="3" style="stroke:#038048;stroke-width:1.0;"/><text fill="#000000" font-family="sans-serif" font-size="11" lengthAdjust="spacing" textLength="91" x="276" y="368.5898">autenticar(): void</text><ellipse cx="267" cy="377.9102" fill="#84BE84" rx="3" ry="3" style="stroke:#038048;stroke-width:1.0;"/><text fill="#000000" font-family="sans-serif" font-size="11" lengthAdjust="spacing" textLength="134" x="276" y="381.5449">send(Pacote dados): void</text><ellipse cx="267" cy="390.8652" fill="#84BE84" rx="3" ry="3" style="stroke:#038048;stroke-width:1.0;"/><text fill="#000000" font-family="sans-serif" font-size="11" lengthAdjust="spacing" textLength="65" x="276" y="394.5">close(): void</text><!--MD5=[fba251de120513f465456c1ec17bc0ec]
class RemetenteHTTP--><rect codeLine="66" fill="#FEFECE" filter="url(#f1j7r0crquu9ri)" height="99.8203" id="RemetenteHTTP" style="stroke:#A80036;stroke-width:1.5;" width="249" x="777" y="141"/><ellipse cx="850.25" cy="157" fill="#ADD1B2" rx="11" ry="11" style="stroke:#A80036;stroke-width:1.0;"/><path d="M852.7231,163.1431 Q852.1421,163.4419 851.5029,163.5913 Q850.8638,163.7407 850.1582,163.7407 Q847.6514,163.7407 846.3315,162.0889 Q845.0117,160.437 845.0117,157.3159 Q845.0117,154.1865 846.3315,152.5347 Q847.6514,150.8828 850.1582,150.8828 Q850.8638,150.8828 851.5112,151.0322 Q852.1587,151.1816 852.7231,151.4805 L852.7231,154.2031 Q852.0923,153.6221 851.4988,153.3523 Q850.9053,153.0825 850.2744,153.0825 Q848.9297,153.0825 848.2449,154.1492 Q847.5601,155.2158 847.5601,157.3159 Q847.5601,159.4077 848.2449,160.4744 Q848.9297,161.541 850.2744,161.541 Q850.9053,161.541 851.4988,161.2712 Q852.0923,161.0015 852.7231,160.4204 Z " fill="#000000"/><text fill="#000000" font-family="sans-serif" font-size="12" lengthAdjust="spacing" textLength="94" x="870.75" y="161.5352">RemetenteHTTP</text><line style="stroke:#A80036;stroke-width:1.5;" x1="778" x2="1025" y1="173" y2="173"/><line style="stroke:#A80036;stroke-width:1.5;" x1="778" x2="1025" y1="181" y2="181"/><ellipse cx="788" cy="192" fill="#84BE84" rx="3" ry="3" style="stroke:#038048;stroke-width:1.0;"/><text fill="#000000" font-family="sans-serif" font-size="11" lengthAdjust="spacing" textLength="223" x="797" y="195.6348">connect(String: enderecoDeDestino): void</text><ellipse cx="788" cy="204.9551" fill="#84BE84" rx="3" ry="3" style="stroke:#038048;stroke-width:1.0;"/><text fill="#000000" font-family="sans-serif" font-size="11" lengthAdjust="spacing" textLength="91" x="797" y="208.5898">autenticar(): void</text><ellipse cx="788" cy="217.9102" fill="#84BE84" rx="3" ry="3" style="stroke:#038048;stroke-width:1.0;"/><text fill="#000000" font-family="sans-serif" font-size="11" lengthAdjust="spacing" textLength="134" x="797" y="221.5449">send(Pacote dados): void</text><ellipse cx="788" cy="230.8652" fill="#84BE84" rx="3" ry="3" style="stroke:#038048;stroke-width:1.0;"/><text fill="#000000" font-family="sans-serif" font-size="11" lengthAdjust="spacing" textLength="65" x="797" y="234.5">close(): void</text><!--MD5=[8475445e37aa7077bb25dc5264b2f285]
class RemetenteCOAP--><rect codeLine="73" fill="#FEFECE" filter="url(#f1j7r0crquu9ri)" height="99.8203" id="RemetenteCOAP" style="stroke:#A80036;stroke-width:1.5;" width="249" x="7" y="141"/><ellipse cx="80.25" cy="157" fill="#ADD1B2" rx="11" ry="11" style="stroke:#A80036;stroke-width:1.0;"/><path d="M82.7231,163.1431 Q82.1421,163.4419 81.5029,163.5913 Q80.8638,163.7407 80.1582,163.7407 Q77.6514,163.7407 76.3315,162.0889 Q75.0117,160.437 75.0117,157.3159 Q75.0117,154.1865 76.3315,152.5347 Q77.6514,150.8828 80.1582,150.8828 Q80.8638,150.8828 81.5112,151.0322 Q82.1587,151.1816 82.7231,151.4805 L82.7231,154.2031 Q82.0923,153.6221 81.4988,153.3523 Q80.9053,153.0825 80.2744,153.0825 Q78.9297,153.0825 78.2449,154.1492 Q77.5601,155.2158 77.5601,157.3159 Q77.5601,159.4077 78.2449,160.4744 Q78.9297,161.541 80.2744,161.541 Q80.9053,161.541 81.4988,161.2712 Q82.0923,161.0015 82.7231,160.4204 Z " fill="#000000"/><text fill="#000000" font-family="sans-serif" font-size="12" lengthAdjust="spacing" textLength="94" x="100.75" y="161.5352">RemetenteCOAP</text><line style="stroke:#A80036;stroke-width:1.5;" x1="8" x2="255" y1="173" y2="173"/><line style="stroke:#A80036;stroke-width:1.5;" x1="8" x2="255" y1="181" y2="181"/><ellipse cx="18" cy="192" fill="#84BE84" rx="3" ry="3" style="stroke:#038048;stroke-width:1.0;"/><text fill="#000000" font-family="sans-serif" font-size="11" lengthAdjust="spacing" textLength="223" x="27" y="195.6348">connect(String: enderecoDeDestino): void</text><ellipse cx="18" cy="204.9551" fill="#84BE84" rx="3" ry="3" style="stroke:#038048;stroke-width:1.0;"/><text fill="#000000" font-family="sans-serif" font-size="11" lengthAdjust="spacing" textLength="91" x="27" y="208.5898">autenticar(): void</text><ellipse cx="18" cy="217.9102" fill="#84BE84" rx="3" ry="3" style="stroke:#038048;stroke-width:1.0;"/><text fill="#000000" font-family="sans-serif" font-size="11" lengthAdjust="spacing" textLength="134" x="27" y="221.5449">send(Pacote dados): void</text><ellipse cx="18" cy="230.8652" fill="#84BE84" rx="3" ry="3" style="stroke:#038048;stroke-width:1.0;"/><text fill="#000000" font-family="sans-serif" font-size="11" lengthAdjust="spacing" textLength="65" x="27" y="234.5">close(): void</text><!--MD5=[56a626a10b5a503e14b6b13e30456ed8]
class Pacote--><rect codeLine="80" fill="#FEFECE" filter="url(#f1j7r0crquu9ri)" height="73.9102" id="Pacote" style="stroke:#A80036;stroke-width:1.5;" width="212" x="540.5" y="314"/><ellipse cx="623.25" cy="330" fill="#B4A7E5" rx="11" ry="11" style="stroke:#A80036;stroke-width:1.0;"/><path d="M619.6777,326.2651 L619.6777,324.1069 L627.0571,324.1069 L627.0571,326.2651 L624.5918,326.2651 L624.5918,334.3418 L627.0571,334.3418 L627.0571,336.5 L619.6777,336.5 L619.6777,334.3418 L622.1431,334.3418 L622.1431,326.2651 Z " fill="#000000"/><text fill="#000000" font-family="sans-serif" font-size="12" font-style="italic" lengthAdjust="spacing" textLength="38" x="643.75" y="334.5352">Pacote</text><line style="stroke:#A80036;stroke-width:1.5;" x1="541.5" x2="751.5" y1="346" y2="346"/><line style="stroke:#A80036;stroke-width:1.5;" x1="541.5" x2="751.5" y1="354" y2="354"/><ellipse cx="551.5" cy="365" fill="#84BE84" rx="3" ry="3" style="stroke:#038048;stroke-width:1.0;"/><text fill="#000000" font-family="sans-serif" font-size="11" lengthAdjust="spacing" textLength="186" x="560.5" y="368.6348">prepararDados(String dados): void</text><ellipse cx="551.5" cy="377.9551" fill="#84BE84" rx="3" ry="3" style="stroke:#038048;stroke-width:1.0;"/><text fill="#000000" font-family="sans-serif" font-size="11" lengthAdjust="spacing" textLength="102" x="560.5" y="381.5898">criptografar(): void</text><!--MD5=[9d0edc91ba4e7a6b91ec4d3a7f71d755]
class PacoteHTTP--><rect codeLine="85" fill="#FEFECE" filter="url(#f1j7r0crquu9ri)" height="73.9102" id="PacoteHTTP" style="stroke:#A80036;stroke-width:1.5;" width="212" x="1061.5" y="154"/><ellipse cx="1128.25" cy="170" fill="#ADD1B2" rx="11" ry="11" style="stroke:#A80036;stroke-width:1.0;"/><path d="M1130.7231,176.1431 Q1130.1421,176.4419 1129.5029,176.5913 Q1128.8638,176.7407 1128.1582,176.7407 Q1125.6514,176.7407 1124.3315,175.0889 Q1123.0117,173.437 1123.0117,170.3159 Q1123.0117,167.1865 1124.3315,165.5347 Q1125.6514,163.8828 1128.1582,163.8828 Q1128.8638,163.8828 1129.5112,164.0322 Q1130.1587,164.1816 1130.7231,164.4805 L1130.7231,167.2031 Q1130.0923,166.6221 1129.4988,166.3523 Q1128.9053,166.0825 1128.2744,166.0825 Q1126.9297,166.0825 1126.2449,167.1492 Q1125.5601,168.2158 1125.5601,170.3159 Q1125.5601,172.4077 1126.2449,173.4744 Q1126.9297,174.541 1128.2744,174.541 Q1128.9053,174.541 1129.4988,174.2712 Q1130.0923,174.0015 1130.7231,173.4204 Z " fill="#000000"/><text fill="#000000" font-family="sans-serif" font-size="12" lengthAdjust="spacing" textLength="70" x="1148.75" y="174.5352">PacoteHTTP</text><line style="stroke:#A80036;stroke-width:1.5;" x1="1062.5" x2="1272.5" y1="186" y2="186"/><line style="stroke:#A80036;stroke-width:1.5;" x1="1062.5" x2="1272.5" y1="194" y2="194"/><ellipse cx="1072.5" cy="205" fill="#84BE84" rx="3" ry="3" style="stroke:#038048;stroke-width:1.0;"/><text fill="#000000" font-family="sans-serif" font-size="11" lengthAdjust="spacing" textLength="186" x="1081.5" y="208.6348">prepararDados(String dados): void</text><ellipse cx="1072.5" cy="217.9551" fill="#84BE84" rx="3" ry="3" style="stroke:#038048;stroke-width:1.0;"/><text fill="#000000" font-family="sans-serif" font-size="11" lengthAdjust="spacing" textLength="102" x="1081.5" y="221.5898">criptografar(): void</text><!--MD5=[fc2d28e68866e6be9abf82dfcdfd7467]
class PacoteCOAP--><rect codeLine="90" fill="#FEFECE" filter="url(#f1j7r0crquu9ri)" height="73.9102" id="PacoteCOAP" style="stroke:#A80036;stroke-width:1.5;" width="212" x="529.5" y="154"/><ellipse cx="596.25" cy="170" fill="#ADD1B2" rx="11" ry="11" style="stroke:#A80036;stroke-width:1.0;"/><path d="M598.7231,176.1431 Q598.1421,176.4419 597.5029,176.5913 Q596.8638,176.7407 596.1582,176.7407 Q593.6514,176.7407 592.3315,175.0889 Q591.0117,173.437 591.0117,170.3159 Q591.0117,167.1865 592.3315,165.5347 Q593.6514,163.8828 596.1582,163.8828 Q596.8638,163.8828 597.5112,164.0322 Q598.1587,164.1816 598.7231,164.4805 L598.7231,167.2031 Q598.0923,166.6221 597.4988,166.3523 Q596.9053,166.0825 596.2744,166.0825 Q594.9297,166.0825 594.2449,167.1492 Q593.5601,168.2158 593.5601,170.3159 Q593.5601,172.4077 594.2449,173.4744 Q594.9297,174.541 596.2744,174.541 Q596.9053,174.541 597.4988,174.2712 Q598.0923,174.0015 598.7231,173.4204 Z " fill="#000000"/><text fill="#000000" font-family="sans-serif" font-size="12" lengthAdjust="spacing" textLength="70" x="616.75" y="174.5352">PacoteCOAP</text><line style="stroke:#A80036;stroke-width:1.5;" x1="530.5" x2="740.5" y1="186" y2="186"/><line style="stroke:#A80036;stroke-width:1.5;" x1="530.5" x2="740.5" y1="194" y2="194"/><ellipse cx="540.5" cy="205" fill="#84BE84" rx="3" ry="3" style="stroke:#038048;stroke-width:1.0;"/><text fill="#000000" font-family="sans-serif" font-size="11" lengthAdjust="spacing" textLength="186" x="549.5" y="208.6348">prepararDados(String dados): void</text><ellipse cx="540.5" cy="217.9551" fill="#84BE84" rx="3" ry="3" style="stroke:#038048;stroke-width:1.0;"/><text fill="#000000" font-family="sans-serif" font-size="11" lengthAdjust="spacing" textLength="102" x="549.5" y="221.5898">criptografar(): void</text><!--MD5=[f08dfb95a89cf4951f92545f9f9729c1]
link FabricaDeRemetentes to Remetente--><path codeLine="95" d="M389.75,228.25 C388.23,248.24 386.31,273.45 384.62,295.74 " fill="none" id="FabricaDeRemetentes-to-Remetente" style="stroke:#A80036;stroke-width:1.0;stroke-dasharray:7.0,7.0;"/><polygon fill="#A80036" points="384.24,300.75,388.9223,292.0853,384.6257,295.7649,380.9461,291.4683,384.24,300.75" style="stroke:#A80036;stroke-width:1.0;"/><!--MD5=[fc8701c60ef462112f65e478fc277032]
link FabricaDeRemetentes to Pacote--><path codeLine="96" d="M450.45,228.05 C490.29,252.83 543.15,285.71 583.95,311.09 " fill="none" id="FabricaDeRemetentes-to-Pacote" style="stroke:#A80036;stroke-width:1.0;stroke-dasharray:7.0,7.0;"/><polygon fill="#A80036" points="588.36,313.83,582.8036,305.6982,584.1056,311.2031,578.6007,312.5052,588.36,313.83" style="stroke:#A80036;stroke-width:1.0;"/><!--MD5=[4bc09ac9f59e6c985f7a870ac880988d]
link FabricaDeRemetentesHTTP to FabricaDeRemetentes--><path codeLine="97" d="M799.61,65.88 C720.47,83.12 608.41,109.77 512.5,141 C506.89,142.83 501.17,144.79 495.43,146.85 " fill="none" id="FabricaDeRemetentesHTTP-to-FabricaDeRemetentes" style="stroke:#A80036;stroke-width:1.0;stroke-dasharray:7.0,7.0;"/><polygon fill="none" points="497.68,153.48,476.5,153.9,492.8,140.36,497.68,153.48" style="stroke:#A80036;stroke-width:1.0;"/><!--MD5=[500bc5ba8f7b5b3fff8191ed87d92583]
link FabricaDeRemetentesCOAP to FabricaDeRemetentes--><path codeLine="98" d="M392.5,81.22 C392.5,97.11 392.5,116.13 392.5,133.79 " fill="none" id="FabricaDeRemetentesCOAP-to-FabricaDeRemetentes" style="stroke:#A80036;stroke-width:1.0;stroke-dasharray:7.0,7.0;"/><polygon fill="none" points="399.5,134,392.5,154,385.5,133.99,399.5,134" style="stroke:#A80036;stroke-width:1.0;"/><!--MD5=[8bb3cae45d2fb232a19c9adeec0b96dd]
link PacoteHTTP to Pacote--><path codeLine="99" d="M1079.53,228.11 C1067.5,232.66 1055.25,237.08 1043.5,241 C953.81,270.94 850.8,299.04 772.19,319.21 " fill="none" id="PacoteHTTP-to-Pacote" style="stroke:#A80036;stroke-width:1.0;stroke-dasharray:7.0,7.0;"/><polygon fill="none" points="773.86,326.01,752.76,324.16,770.41,312.44,773.86,326.01" style="stroke:#A80036;stroke-width:1.0;"/><!--MD5=[65999a5258a2f9b9c17d77d1d8ea4b8a]
link PacoteCOAP to Pacote--><path codeLine="100" d="M638.02,228.25 C639.37,247.62 641.06,271.89 642.58,293.66 " fill="none" id="PacoteCOAP-to-Pacote" style="stroke:#A80036;stroke-width:1.0;stroke-dasharray:7.0,7.0;"/><polygon fill="none" points="649.58,293.48,643.99,313.92,635.62,294.45,649.58,293.48" style="stroke:#A80036;stroke-width:1.0;"/><!--MD5=[93b35635b57f56c2287c8f15914bd04a]
link RemetenteHTTP to Remetente--><path codeLine="101" d="M776.63,235.73 C770.85,237.55 765.12,239.32 759.5,241 C661.48,270.32 630.57,270.21 524.32,300.98 " fill="none" id="RemetenteHTTP-to-Remetente" style="stroke:#A80036;stroke-width:1.0;stroke-dasharray:7.0,7.0;"/><polygon fill="none" points="526.26,307.71,505.09,306.64,522.3,294.28,526.26,307.71" style="stroke:#A80036;stroke-width:1.0;"/><!--MD5=[6c66486b2209eb13bd85867303634bbe]
link RemetenteCOAP to Remetente--><path codeLine="102" d="M208.92,241.13 C233.4,256.66 260.72,273.99 286.24,290.19 " fill="none" id="RemetenteCOAP-to-Remetente" style="stroke:#A80036;stroke-width:1.0;stroke-dasharray:7.0,7.0;"/><polygon fill="none" points="289.99,284.28,303.13,300.9,282.49,296.1,289.99,284.28" style="stroke:#A80036;stroke-width:1.0;"/><!--MD5=[209ac5f17841f51f158b22c87609143e]
link FabricaDeRemetentesCOAP to PacoteCOAP--><path codeLine="103" d="M452.88,81.03 C488.67,102.39 534.04,129.46 570.6,151.27 " fill="none" id="FabricaDeRemetentesCOAP-to-PacoteCOAP" style="stroke:#A80036;stroke-width:1.0;stroke-dasharray:7.0,7.0;"/><polygon fill="#A80036" points="575.01,153.91,569.319,145.8718,570.7125,151.3543,565.23,152.7478,575.01,153.91" style="stroke:#A80036;stroke-width:1.0;"/><!--MD5=[a3c0c6769e3f4049e0eea65ef1d65563]
link FabricaDeRemetentesCOAP to RemetenteCOAP--><path codeLine="104" d="M327.65,81.03 C296.58,98.29 258.81,119.27 224.73,138.2 " fill="none" id="FabricaDeRemetentesCOAP-to-RemetenteCOAP" style="stroke:#A80036;stroke-width:1.0;stroke-dasharray:7.0,7.0;"/><polygon fill="#A80036" points="220.17,140.74,229.98,139.8658,224.5408,138.3118,226.0948,132.8726,220.17,140.74" style="stroke:#A80036;stroke-width:1.0;"/><!--MD5=[05e9f4e86995d85a60e538a37a22811c]
link FabricaDeRemetentesHTTP to PacoteHTTP--><path codeLine="105" d="M967.59,81.03 C1006.78,102.39 1056.43,129.46 1096.45,151.27 " fill="none" id="FabricaDeRemetentesHTTP-to-PacoteHTTP" style="stroke:#A80036;stroke-width:1.0;stroke-dasharray:7.0,7.0;"/><polygon fill="#A80036" points="1101.28,153.91,1095.2854,146.0956,1096.8878,151.5208,1091.4626,153.1231,1101.28,153.91" style="stroke:#A80036;stroke-width:1.0;"/><!--MD5=[b40572502f7d39386fe32da2c708bc6c]
link FabricaDeRemetentesHTTP to RemetenteHTTP--><path codeLine="106" d="M901.5,81.22 C901.5,97.7 901.5,117.56 901.5,135.77 " fill="none" id="FabricaDeRemetentesHTTP-to-RemetenteHTTP" style="stroke:#A80036;stroke-width:1.0;stroke-dasharray:7.0,7.0;"/><polygon fill="#A80036" points="901.5,140.86,905.5,131.86,901.5,135.86,897.5,131.86,901.5,140.86" style="stroke:#A80036;stroke-width:1.0;"/><!--MD5=[1d13e6b6cd6ee3e0245dcadb79acc487]
@startuml AbstractFactory

interface FabricaDeRemetentes {
    +criarRemetente(): Remetente
    +criarPacote(String dados): Pacote
}

class FabricaDeRemetentesHTTP {
    +criarRemetente(): Remetente
    +criarPacote(String dados): Pacote
}

class FabricaDeRemetentesCOAP {
    +criarRemetente(): Remetente
    +criarPacote(String dados): Pacote
}

interface Remetente {
    +connect(String: enderecoDeDestino): void
    +autenticar(): void
    +send(Pacote dados): void
    +close(): void 
}

class RemetenteHTTP {
    +connect(String: enderecoDeDestino): void
    +autenticar(): void
    +send(Pacote dados): void
    +close(): void 
}

class RemetenteCOAP {
    +connect(String: enderecoDeDestino): void
    +autenticar(): void
    +send(Pacote dados): void
    +close(): void 
}

interface Pacote {
    +prepararDados(String dados): void
    +criptografar(): void
}

class PacoteHTTP {
    +prepararDados(String dados): void
    +criptografar(): void
}

class PacoteCOAP {
    +prepararDados(String dados): void
    +criptografar(): void
}

FabricaDeRemetentes ..> Remetente
FabricaDeRemetentes ..> Pacote
FabricaDeRemetentesHTTP ..|> FabricaDeRemetentes
FabricaDeRemetentesCOAP ..|> FabricaDeRemetentes
PacoteHTTP ..|> Pacote
PacoteCOAP ..|> Pacote
RemetenteHTTP ..|> Remetente
RemetenteCOAP ..|> Remetente
FabricaDeRemetentesCOAP ..> PacoteCOAP
FabricaDeRemetentesCOAP ..> RemetenteCOAP
FabricaDeRemetentesHTTP ..> PacoteHTTP
FabricaDeRemetentesHTTP ..> RemetenteHTTP


@enduml

PlantUML version 1.2021.13(Mon Nov 01 12:38:45 CET 2021)
(GPL source distribution)
Java Runtime: OpenJDK Runtime Environment
JVM: OpenJDK 64-Bit Server VM
Default Encoding: UTF-8
Language: pt
Country: BR
--></g></svg>