<?xml version="1.0" encoding="UTF-8" standalone="no"?><svg xmlns="http://www.w3.org/2000/svg" xmlns:xlink="http://www.w3.org/1999/xlink" contentScriptType="application/ecmascript" contentStyleType="text/css" height="120px" preserveAspectRatio="none" style="width:489px;height:120px;background:#FFFFFF;" version="1.1" viewBox="0 0 489 120" width="489px" zoomAndPan="magnify"><defs><filter height="300%" id="fceld3198l4mp" width="300%" x="-1" y="-1"><feGaussianBlur result="blurOut" stdDeviation="2.0"/><feColorMatrix in="blurOut" result="blurOut2" type="matrix" values="0 0 0 0 0 0 0 0 0 0 0 0 0 0 0 0 0 0 .4 0"/><feOffset dx="4.0" dy="4.0" in="blurOut2" result="blurOut3"/><feBlend in="SourceGraphic" in2="blurOut3" mode="normal"/></filter></defs><g><!--MD5=[e73472e7a53cfeb74920d5aed4e6c4a7]
class Remetente--><rect codeLine="9" fill="#FEFECE" filter="url(#fceld3198l4mp)" height="99.8203" id="Remetente" style="stroke:#A80036;stroke-width:1.5;" width="235" x="7" y="7"/><ellipse cx="89.25" cy="23" fill="#B4A7E5" rx="11" ry="11" style="stroke:#A80036;stroke-width:1.0;"/><path d="M85.6777,19.2651 L85.6777,17.1069 L93.0571,17.1069 L93.0571,19.2651 L90.5918,19.2651 L90.5918,27.3418 L93.0571,27.3418 L93.0571,29.5 L85.6777,29.5 L85.6777,27.3418 L88.1431,27.3418 L88.1431,19.2651 Z " fill="#000000"/><text fill="#000000" font-family="sans-serif" font-size="12" font-style="italic" lengthAdjust="spacing" textLength="62" x="109.75" y="27.5352">Remetente</text><line style="stroke:#A80036;stroke-width:1.5;" x1="8" x2="241" y1="39" y2="39"/><line style="stroke:#A80036;stroke-width:1.5;" x1="8" x2="241" y1="47" y2="47"/><text fill="#000000" font-family="sans-serif" font-size="11" lengthAdjust="spacing" textLength="223" x="13" y="61.6348">connect(String: enderecoDeDestino): void</text><text fill="#000000" font-family="sans-serif" font-size="11" lengthAdjust="spacing" textLength="91" x="13" y="74.5898">autenticar(): void</text><text fill="#000000" font-family="sans-serif" font-size="11" lengthAdjust="spacing" textLength="134" x="13" y="87.5449">send(Pacote dados): void</text><text fill="#000000" font-family="sans-serif" font-size="11" lengthAdjust="spacing" textLength="65" x="13" y="100.5">close(): void</text><!--MD5=[56a626a10b5a503e14b6b13e30456ed8]
class Pacote--><rect codeLine="15" fill="#FEFECE" filter="url(#fceld3198l4mp)" height="73.9102" id="Pacote" style="stroke:#A80036;stroke-width:1.5;" width="198" x="277.5" y="20"/><ellipse cx="353.25" cy="36" fill="#B4A7E5" rx="11" ry="11" style="stroke:#A80036;stroke-width:1.0;"/><path d="M349.6777,32.2651 L349.6777,30.1069 L357.0571,30.1069 L357.0571,32.2651 L354.5918,32.2651 L354.5918,40.3418 L357.0571,40.3418 L357.0571,42.5 L349.6777,42.5 L349.6777,40.3418 L352.1431,40.3418 L352.1431,32.2651 Z " fill="#000000"/><text fill="#000000" font-family="sans-serif" font-size="12" font-style="italic" lengthAdjust="spacing" textLength="38" x="373.75" y="40.5352">Pacote</text><line style="stroke:#A80036;stroke-width:1.5;" x1="278.5" x2="474.5" y1="52" y2="52"/><line style="stroke:#A80036;stroke-width:1.5;" x1="278.5" x2="474.5" y1="60" y2="60"/><text fill="#000000" font-family="sans-serif" font-size="11" lengthAdjust="spacing" textLength="186" x="283.5" y="74.6348">prepararDados(String dados): void</text><text fill="#000000" font-family="sans-serif" font-size="11" lengthAdjust="spacing" textLength="102" x="283.5" y="87.5898">criptografar(): void</text><!--MD5=[16c729ff9869ea5ce2294f21e1aa7548]
@startuml BaseTypes
interface Remetente {
    connect(String: enderecoDeDestino): void
    autenticar(): void
    send(Pacote dados): void
    close(): void 
}
interface Pacote {
    prepararDados(String dados): void
    criptografar(): void
}
@enduml

PlantUML version 1.2021.13(Mon Nov 01 12:38:45 CET 2021)
(GPL source distribution)
Java Runtime: OpenJDK Runtime Environment
JVM: OpenJDK 64-Bit Server VM
Default Encoding: UTF-8
Language: pt
Country: BR
--></g></svg>