<?xml version="1.0" encoding="UTF-8" standalone="no"?><svg xmlns="http://www.w3.org/2000/svg" xmlns:xlink="http://www.w3.org/1999/xlink" contentScriptType="application/ecmascript" contentStyleType="text/css" height="530px" preserveAspectRatio="none" style="width:1752px;height:530px;background:#FFFFFF;" version="1.1" viewBox="0 0 1752 530" width="1752px" zoomAndPan="magnify"><defs/><g><!--MD5=[e73472e7a53cfeb74920d5aed4e6c4a7]
class Remetente--><rect codeLine="126" fill="#FEFECE" height="113.9531" id="Remetente" style="stroke:#A80036;stroke-width:1.5;" width="310" x="327" y="410"/><ellipse cx="441.25" cy="426" fill="#B4A7E5" rx="11" ry="11" style="stroke:#A80036;stroke-width:1.0;"/><path d="M437.6777,422.2651 L437.6777,420.1069 L445.0571,420.1069 L445.0571,422.2651 L442.5918,422.2651 L442.5918,430.3418 L445.0571,430.3418 L445.0571,432.5 L437.6777,432.5 L437.6777,430.3418 L440.1431,430.3418 L440.1431,422.2651 Z " fill="#000000"/><text fill="#000000" font-family="sans-serif" font-size="14" font-style="italic" lengthAdjust="spacing" textLength="73" x="461.75" y="431.291">Remetente</text><line style="stroke:#A80036;stroke-width:1.5;" x1="328" x2="636" y1="442" y2="442"/><line style="stroke:#A80036;stroke-width:1.5;" x1="328" x2="636" y1="450" y2="450"/><ellipse cx="338" cy="461" fill="#84BE84" rx="3" ry="3" style="stroke:#038048;stroke-width:1.0;"/><text fill="#000000" font-family="sans-serif" font-size="14" lengthAdjust="spacing" textLength="284" x="347" y="467.5352">connect(String: enderecoDeDestino): void</text><ellipse cx="338" cy="477.4883" fill="#84BE84" rx="3" ry="3" style="stroke:#038048;stroke-width:1.0;"/><text fill="#000000" font-family="sans-serif" font-size="14" lengthAdjust="spacing" textLength="116" x="347" y="484.0234">autenticar(): void</text><ellipse cx="338" cy="493.9766" fill="#84BE84" rx="3" ry="3" style="stroke:#038048;stroke-width:1.0;"/><text fill="#000000" font-family="sans-serif" font-size="14" lengthAdjust="spacing" textLength="171" x="347" y="500.5117">send(Pacote dados): void</text><ellipse cx="338" cy="510.4648" fill="#84BE84" rx="3" ry="3" style="stroke:#038048;stroke-width:1.0;"/><text fill="#000000" font-family="sans-serif" font-size="14" lengthAdjust="spacing" textLength="82" x="347" y="517">close(): void</text><!--MD5=[56a626a10b5a503e14b6b13e30456ed8]
class Pacote--><rect codeLine="133" fill="#FEFECE" height="80.9766" id="Pacote" style="stroke:#A80036;stroke-width:1.5;" width="263" x="1216.5" y="426.5"/><ellipse cx="1321.25" cy="442.5" fill="#B4A7E5" rx="11" ry="11" style="stroke:#A80036;stroke-width:1.0;"/><path d="M1317.6777,438.7651 L1317.6777,436.6069 L1325.0571,436.6069 L1325.0571,438.7651 L1322.5918,438.7651 L1322.5918,446.8418 L1325.0571,446.8418 L1325.0571,449 L1317.6777,449 L1317.6777,446.8418 L1320.1431,446.8418 L1320.1431,438.7651 Z " fill="#000000"/><text fill="#000000" font-family="sans-serif" font-size="14" font-style="italic" lengthAdjust="spacing" textLength="45" x="1341.75" y="447.791">Pacote</text><line style="stroke:#A80036;stroke-width:1.5;" x1="1217.5" x2="1478.5" y1="458.5" y2="458.5"/><line style="stroke:#A80036;stroke-width:1.5;" x1="1217.5" x2="1478.5" y1="466.5" y2="466.5"/><ellipse cx="1227.5" cy="477.5" fill="#84BE84" rx="3" ry="3" style="stroke:#038048;stroke-width:1.0;"/><text fill="#000000" font-family="sans-serif" font-size="14" lengthAdjust="spacing" textLength="237" x="1236.5" y="484.0352">prepararDados(String dados): void</text><ellipse cx="1227.5" cy="493.9883" fill="#84BE84" rx="3" ry="3" style="stroke:#038048;stroke-width:1.0;"/><text fill="#000000" font-family="sans-serif" font-size="14" lengthAdjust="spacing" textLength="129" x="1236.5" y="500.5234">criptografar(): void</text><!--MD5=[c3636f9076f82c104c3aa4dc63ce89b1]
class DecoradorDePacote--><rect codeLine="138" fill="#FEFECE" height="64.4883" id="DecoradorDePacote" style="stroke:#A80036;stroke-width:1.5;" width="167" x="1264.5" y="225"/><ellipse cx="1279.5" cy="241" fill="#A9DCDF" rx="11" ry="11" style="stroke:#A80036;stroke-width:1.0;"/><path d="M1279.3633,236.3481 L1278.2095,241.4199 L1280.5254,241.4199 Z M1277.8691,234.1069 L1280.8657,234.1069 L1284.2109,246.5 L1281.7622,246.5 L1280.9985,243.437 L1277.7197,243.437 L1276.9727,246.5 L1274.5239,246.5 Z " fill="#000000"/><text fill="#000000" font-family="sans-serif" font-size="14" font-style="italic" lengthAdjust="spacing" textLength="135" x="1293.5" y="246.291">DecoradorDePacote</text><line style="stroke:#A80036;stroke-width:1.5;" x1="1265.5" x2="1430.5" y1="257" y2="257"/><line style="stroke:#A80036;stroke-width:1.5;" x1="1265.5" x2="1430.5" y1="265" y2="265"/><ellipse cx="1275.5" cy="276" fill="#84BE84" rx="3" ry="3" style="stroke:#038048;stroke-width:1.0;"/><text fill="#000000" font-family="sans-serif" font-size="14" lengthAdjust="spacing" textLength="116" x="1284.5" y="282.5352">autenticar(): void</text><!--MD5=[225c2791e7c41f6ef5ac5fa7c8763bc7]
class DecoradorDeRemetente--><rect codeLine="142" fill="#FEFECE" height="64.4883" id="DecoradorDeRemetente" style="stroke:#A80036;stroke-width:1.5;" width="195" x="384.5" y="225"/><ellipse cx="399.5" cy="241" fill="#A9DCDF" rx="11" ry="11" style="stroke:#A80036;stroke-width:1.0;"/><path d="M399.3633,236.3481 L398.2095,241.4199 L400.5254,241.4199 Z M397.8691,234.1069 L400.8657,234.1069 L404.2109,246.5 L401.7622,246.5 L400.9985,243.437 L397.7197,243.437 L396.9727,246.5 L394.5239,246.5 Z " fill="#000000"/><text fill="#000000" font-family="sans-serif" font-size="14" font-style="italic" lengthAdjust="spacing" textLength="163" x="413.5" y="246.291">DecoradorDeRemetente</text><line style="stroke:#A80036;stroke-width:1.5;" x1="385.5" x2="578.5" y1="257" y2="257"/><line style="stroke:#A80036;stroke-width:1.5;" x1="385.5" x2="578.5" y1="265" y2="265"/><ellipse cx="395.5" cy="276" fill="#84BE84" rx="3" ry="3" style="stroke:#038048;stroke-width:1.0;"/><text fill="#000000" font-family="sans-serif" font-size="14" lengthAdjust="spacing" textLength="129" x="404.5" y="282.5352">criptografar(): void</text><!--MD5=[6abcec386f8ce02819d5fab808901827]
class DecoradorDePacoteCriptografiaRSA--><rect codeLine="146" fill="#FEFECE" height="97.4648" id="DecoradorDePacoteCriptografiaRSA" style="stroke:#A80036;stroke-width:1.5;" width="380" x="951" y="7"/><ellipse cx="1014.25" cy="23" fill="#ADD1B2" rx="11" ry="11" style="stroke:#A80036;stroke-width:1.0;"/><path d="M1016.7231,29.1431 Q1016.1421,29.4419 1015.5029,29.5913 Q1014.8638,29.7407 1014.1582,29.7407 Q1011.6514,29.7407 1010.3315,28.0889 Q1009.0117,26.437 1009.0117,23.3159 Q1009.0117,20.1865 1010.3315,18.5347 Q1011.6514,16.8828 1014.1582,16.8828 Q1014.8638,16.8828 1015.5112,17.0322 Q1016.1587,17.1816 1016.7231,17.4805 L1016.7231,20.2031 Q1016.0923,19.6221 1015.4988,19.3523 Q1014.9053,19.0825 1014.2744,19.0825 Q1012.9297,19.0825 1012.2449,20.1492 Q1011.5601,21.2158 1011.5601,23.3159 Q1011.5601,25.4077 1012.2449,26.4744 Q1012.9297,27.541 1014.2744,27.541 Q1014.9053,27.541 1015.4988,27.2712 Q1016.0923,27.0015 1016.7231,26.4204 Z " fill="#000000"/><text fill="#000000" font-family="sans-serif" font-size="14" lengthAdjust="spacing" textLength="245" x="1034.75" y="28.291">DecoradorDePacoteCriptografiaRSA</text><line style="stroke:#A80036;stroke-width:1.5;" x1="952" x2="1330" y1="39" y2="39"/><rect fill="none" height="6" style="stroke:#C82930;stroke-width:1.0;" width="6" x="959" y="47"/><text fill="#000000" font-family="sans-serif" font-size="14" lengthAdjust="spacing" textLength="99" x="971" y="56.5352">pacote: Pacote</text><line style="stroke:#A80036;stroke-width:1.5;" x1="952" x2="1330" y1="63.4883" y2="63.4883"/><ellipse cx="962" cy="74.4883" fill="#84BE84" rx="3" ry="3" style="stroke:#038048;stroke-width:1.0;"/><text fill="#000000" font-family="sans-serif" font-size="14" lengthAdjust="spacing" textLength="354" x="971" y="81.0234">DecoradorDePacoteCriptografiaRSA(pacote: Pacote)</text><ellipse cx="962" cy="90.9766" fill="#84BE84" rx="3" ry="3" style="stroke:#038048;stroke-width:1.0;"/><text fill="#000000" font-family="sans-serif" font-size="14" lengthAdjust="spacing" textLength="129" x="971" y="97.5117">criptografar(): void</text><!--MD5=[4bbf1019dfa826bcbd09291e492ae1e1]
class DecoradorDePacoteCriptografiaDES--><rect codeLine="152" fill="#FEFECE" height="97.4648" id="DecoradorDePacoteCriptografiaDES" style="stroke:#A80036;stroke-width:1.5;" width="379" x="1366.5" y="7"/><ellipse cx="1429.75" cy="23" fill="#ADD1B2" rx="11" ry="11" style="stroke:#A80036;stroke-width:1.0;"/><path d="M1432.2231,29.1431 Q1431.6421,29.4419 1431.0029,29.5913 Q1430.3638,29.7407 1429.6582,29.7407 Q1427.1514,29.7407 1425.8315,28.0889 Q1424.5117,26.437 1424.5117,23.3159 Q1424.5117,20.1865 1425.8315,18.5347 Q1427.1514,16.8828 1429.6582,16.8828 Q1430.3638,16.8828 1431.0112,17.0322 Q1431.6587,17.1816 1432.2231,17.4805 L1432.2231,20.2031 Q1431.5923,19.6221 1430.9988,19.3523 Q1430.4053,19.0825 1429.7744,19.0825 Q1428.4297,19.0825 1427.7449,20.1492 Q1427.0601,21.2158 1427.0601,23.3159 Q1427.0601,25.4077 1427.7449,26.4744 Q1428.4297,27.541 1429.7744,27.541 Q1430.4053,27.541 1430.9988,27.2712 Q1431.5923,27.0015 1432.2231,26.4204 Z " fill="#000000"/><text fill="#000000" font-family="sans-serif" font-size="14" lengthAdjust="spacing" textLength="244" x="1450.25" y="28.291">DecoradorDePacoteCriptografiaDES</text><line style="stroke:#A80036;stroke-width:1.5;" x1="1367.5" x2="1744.5" y1="39" y2="39"/><rect fill="none" height="6" style="stroke:#C82930;stroke-width:1.0;" width="6" x="1374.5" y="47"/><text fill="#000000" font-family="sans-serif" font-size="14" lengthAdjust="spacing" textLength="99" x="1386.5" y="56.5352">pacote: Pacote</text><line style="stroke:#A80036;stroke-width:1.5;" x1="1367.5" x2="1744.5" y1="63.4883" y2="63.4883"/><ellipse cx="1377.5" cy="74.4883" fill="#84BE84" rx="3" ry="3" style="stroke:#038048;stroke-width:1.0;"/><text fill="#000000" font-family="sans-serif" font-size="14" lengthAdjust="spacing" textLength="353" x="1386.5" y="81.0234">DecoradorDePacoteCriptografiaDES(pacote: Pacote)</text><ellipse cx="1377.5" cy="90.9766" fill="#84BE84" rx="3" ry="3" style="stroke:#038048;stroke-width:1.0;"/><text fill="#000000" font-family="sans-serif" font-size="14" lengthAdjust="spacing" textLength="129" x="1386.5" y="97.5117">criptografar(): void</text><!--MD5=[70c9739d84ac7ad26a1a6082692b0f46]
class DecoradorDeAutenticaçãoSenha--><rect codeLine="158" fill="#FEFECE" height="97.4648" id="DecoradorDeAutenticaçãoSenha" style="stroke:#A80036;stroke-width:1.5;" width="478" x="7" y="7"/><ellipse cx="131.25" cy="23" fill="#ADD1B2" rx="11" ry="11" style="stroke:#A80036;stroke-width:1.0;"/><path d="M133.7231,29.1431 Q133.1421,29.4419 132.5029,29.5913 Q131.8638,29.7407 131.1582,29.7407 Q128.6514,29.7407 127.3315,28.0889 Q126.0117,26.437 126.0117,23.3159 Q126.0117,20.1865 127.3315,18.5347 Q128.6514,16.8828 131.1582,16.8828 Q131.8638,16.8828 132.5112,17.0322 Q133.1587,17.1816 133.7231,17.4805 L133.7231,20.2031 Q133.0923,19.6221 132.4988,19.3523 Q131.9053,19.0825 131.2744,19.0825 Q129.9297,19.0825 129.2449,20.1492 Q128.5601,21.2158 128.5601,23.3159 Q128.5601,25.4077 129.2449,26.4744 Q129.9297,27.541 131.2744,27.541 Q131.9053,27.541 132.4988,27.2712 Q133.0923,27.0015 133.7231,26.4204 Z " fill="#000000"/><text fill="#000000" font-family="sans-serif" font-size="14" lengthAdjust="spacing" textLength="221" x="151.75" y="28.291">DecoradorDeAutenticaçãoSenha</text><line style="stroke:#A80036;stroke-width:1.5;" x1="8" x2="484" y1="39" y2="39"/><rect fill="none" height="6" style="stroke:#C82930;stroke-width:1.0;" width="6" x="15" y="47"/><text fill="#000000" font-family="sans-serif" font-size="14" lengthAdjust="spacing" textLength="151" x="27" y="56.5352">remetente: Remetente</text><line style="stroke:#A80036;stroke-width:1.5;" x1="8" x2="484" y1="63.4883" y2="63.4883"/><ellipse cx="18" cy="74.4883" fill="#84BE84" rx="3" ry="3" style="stroke:#038048;stroke-width:1.0;"/><text fill="#000000" font-family="sans-serif" font-size="14" lengthAdjust="spacing" textLength="452" x="27" y="81.0234">DecoradorDeAutenticaçãoCriptografiaSenha(remente: Remetente)</text><ellipse cx="18" cy="90.9766" fill="#84BE84" rx="3" ry="3" style="stroke:#038048;stroke-width:1.0;"/><text fill="#000000" font-family="sans-serif" font-size="14" lengthAdjust="spacing" textLength="116" x="27" y="97.5117">autenticar(): void</text><!--MD5=[620ef92eee5a3b4b321fb77679a9c56f]
class DecoradorDeAutenticaçãoToken--><rect codeLine="164" fill="#FEFECE" height="97.4648" id="DecoradorDeAutenticaçãoToken" style="stroke:#A80036;stroke-width:1.5;" width="396" x="520" y="7"/><ellipse cx="602.75" cy="23" fill="#ADD1B2" rx="11" ry="11" style="stroke:#A80036;stroke-width:1.0;"/><path d="M605.2231,29.1431 Q604.6421,29.4419 604.0029,29.5913 Q603.3638,29.7407 602.6582,29.7407 Q600.1514,29.7407 598.8315,28.0889 Q597.5117,26.437 597.5117,23.3159 Q597.5117,20.1865 598.8315,18.5347 Q600.1514,16.8828 602.6582,16.8828 Q603.3638,16.8828 604.0112,17.0322 Q604.6587,17.1816 605.2231,17.4805 L605.2231,20.2031 Q604.5923,19.6221 603.9988,19.3523 Q603.4053,19.0825 602.7744,19.0825 Q601.4297,19.0825 600.7449,20.1492 Q600.0601,21.2158 600.0601,23.3159 Q600.0601,25.4077 600.7449,26.4744 Q601.4297,27.541 602.7744,27.541 Q603.4053,27.541 603.9988,27.2712 Q604.5923,27.0015 605.2231,26.4204 Z " fill="#000000"/><text fill="#000000" font-family="sans-serif" font-size="14" lengthAdjust="spacing" textLength="222" x="623.25" y="28.291">DecoradorDeAutenticaçãoToken</text><line style="stroke:#A80036;stroke-width:1.5;" x1="521" x2="915" y1="39" y2="39"/><rect fill="none" height="6" style="stroke:#C82930;stroke-width:1.0;" width="6" x="528" y="47"/><text fill="#000000" font-family="sans-serif" font-size="14" lengthAdjust="spacing" textLength="151" x="540" y="56.5352">remetente: Remetente</text><line style="stroke:#A80036;stroke-width:1.5;" x1="521" x2="915" y1="63.4883" y2="63.4883"/><ellipse cx="531" cy="74.4883" fill="#84BE84" rx="3" ry="3" style="stroke:#038048;stroke-width:1.0;"/><text fill="#000000" font-family="sans-serif" font-size="14" lengthAdjust="spacing" textLength="370" x="540" y="81.0234">DecoradorDeAutenticaçãoToken(remente: Remetente)</text><ellipse cx="531" cy="90.9766" fill="#84BE84" rx="3" ry="3" style="stroke:#038048;stroke-width:1.0;"/><text fill="#000000" font-family="sans-serif" font-size="14" lengthAdjust="spacing" textLength="116" x="540" y="97.5117">autenticar(): void</text><!--MD5=[3972d1f2dd835d96ed2d27ba558de47e]
link DecoradorDePacote to Pacote--><path codeLine="171" d="M1348,289.14 C1348,320.03 1348,368.14 1348,406.39 " fill="none" id="DecoradorDePacote-to-Pacote" style="stroke:#A80036;stroke-width:1.0;"/><polygon fill="none" points="1355,406.46,1348,426.46,1341,406.46,1355,406.46" style="stroke:#A80036;stroke-width:1.0;"/><!--MD5=[b0bc25f8b2ac4c759460bffc8bb2a551]
link DecoradorDeRemetente to Remetente--><path codeLine="172" d="M482,289.14 C482,315.64 482,354.81 482,389.56 " fill="none" id="DecoradorDeRemetente-to-Remetente" style="stroke:#A80036;stroke-width:1.0;"/><polygon fill="none" points="489,389.93,482,409.93,475,389.93,489,389.93" style="stroke:#A80036;stroke-width:1.0;"/><!--MD5=[84a69ba86fc46f437bee1720bf30de3d]
link DecoradorDePacoteCriptografiaRSA to DecoradorDePacote--><path codeLine="173" d="M1190.32,104.03 C1223.87,136.37 1268,178.9 1301.04,210.74 " fill="none" id="DecoradorDePacoteCriptografiaRSA-to-DecoradorDePacote" style="stroke:#A80036;stroke-width:1.0;"/><polygon fill="none" points="1306.27,206.06,1315.82,224.98,1296.56,216.14,1306.27,206.06" style="stroke:#A80036;stroke-width:1.0;"/><!--MD5=[d0f92c295c7d4dec56684cfe91b8487c]
link DecoradorDePacoteCriptografiaDES to DecoradorDePacote--><path codeLine="174" d="M1506.44,104.03 C1472.73,136.37 1428.39,178.9 1395.19,210.74 " fill="none" id="DecoradorDePacoteCriptografiaDES-to-DecoradorDePacote" style="stroke:#A80036;stroke-width:1.0;"/><polygon fill="none" points="1399.62,216.19,1380.34,224.98,1389.93,206.09,1399.62,216.19" style="stroke:#A80036;stroke-width:1.0;"/><!--MD5=[6c72f6dc922e55831bf895c9540c1e7e]
link DecoradorDeAutenticaçãoSenha to DecoradorDeRemetente--><path codeLine="175" d="M302.23,104.03 C341,136.81 392.16,180.05 429.99,212.03 " fill="none" id="DecoradorDeAutenticaçãoSenha-to-DecoradorDeRemetente" style="stroke:#A80036;stroke-width:1.0;"/><polygon fill="none" points="434.55,206.72,445.31,224.98,425.51,217.42,434.55,206.72" style="stroke:#A80036;stroke-width:1.0;"/><!--MD5=[77191bdede08d34bf6ab3cc9ee4179f3]
link DecoradorDeAutenticaçãoToken to DecoradorDeRemetente--><path codeLine="176" d="M661.77,104.03 C623,136.81 571.84,180.05 534.01,212.03 " fill="none" id="DecoradorDeAutenticaçãoToken-to-DecoradorDeRemetente" style="stroke:#A80036;stroke-width:1.0;"/><polygon fill="none" points="538.49,217.42,518.69,224.98,529.45,206.72,538.49,217.42" style="stroke:#A80036;stroke-width:1.0;"/><!--MD5=[d01095b4ef656924a816f932c3766697]
@startuml Decorators
!theme resume-light
interface Remetente {
    +connect(String: enderecoDeDestino): void
    +autenticar(): void
    +send(Pacote dados): void
    +close(): void 
}

interface Pacote {
    +prepararDados(String dados): void
    +criptografar(): void
}

abstract class DecoradorDePacote {
    +autenticar(): void
}

abstract class DecoradorDeRemetente {
    +criptografar(): void
}

class DecoradorDePacoteCriptografiaRSA {
    -pacote: Pacote
    +DecoradorDePacoteCriptografiaRSA(pacote: Pacote)
    +criptografar(): void
}

class DecoradorDePacoteCriptografiaDES {
    -pacote: Pacote
    +DecoradorDePacoteCriptografiaDES(pacote: Pacote)
    +criptografar(): void
}

class DecoradorDeAutenticaçãoSenha {
    -remetente: Remetente
    +DecoradorDeAutenticaçãoCriptografiaSenha(remente: Remetente)
    +autenticar(): void
}

class DecoradorDeAutenticaçãoToken {
    -remetente: Remetente
    +DecoradorDeAutenticaçãoToken(remente: Remetente)
    +autenticar(): void
}


DecoradorDePacote - - -^ Pacote
DecoradorDeRemetente - - -^ Remetente
DecoradorDePacoteCriptografiaRSA - - -^ DecoradorDePacote
DecoradorDePacoteCriptografiaDES - - -^ DecoradorDePacote
DecoradorDeAutenticaçãoSenha - - -^ DecoradorDeRemetente
DecoradorDeAutenticaçãoToken - - -^ DecoradorDeRemetente

@enduml

@startuml Decorators



skinparam backgroundColor transparent
skinparam useBetaStyle false


skinparam  {
    skinparam defaultFontName   "Verdana"
    skinparam defaultFontSize   12
    defaultTextAlignment        center
    shadowing                   false
    RoundCorner                 10
    TitleFontSize               18
}
<style>
    wbsDiagram {
        LineColor #f0f0f0
        BorderThickness 3
        BackgroundColor #f9f9f9
        FontColor #6a9fb5
        :depth(0) {
            fontSize 16
            fontStyle bold
        }
        :depth(1) {
            fontSize 14
            padding 5
            fontStyle bold
        }
        :depth(2) {
            fontSize 12
            padding 3
        }
        :depth(3) {
            fontSize 10
            padding 2
        }

    }
</style>
interface Remetente {
    +connect(String: enderecoDeDestino): void
    +autenticar(): void
    +send(Pacote dados): void
    +close(): void 
}

interface Pacote {
    +prepararDados(String dados): void
    +criptografar(): void
}

abstract class DecoradorDePacote {
    +autenticar(): void
}

abstract class DecoradorDeRemetente {
    +criptografar(): void
}

class DecoradorDePacoteCriptografiaRSA {
    -pacote: Pacote
    +DecoradorDePacoteCriptografiaRSA(pacote: Pacote)
    +criptografar(): void
}

class DecoradorDePacoteCriptografiaDES {
    -pacote: Pacote
    +DecoradorDePacoteCriptografiaDES(pacote: Pacote)
    +criptografar(): void
}

class DecoradorDeAutenticaçãoSenha {
    -remetente: Remetente
    +DecoradorDeAutenticaçãoCriptografiaSenha(remente: Remetente)
    +autenticar(): void
}

class DecoradorDeAutenticaçãoToken {
    -remetente: Remetente
    +DecoradorDeAutenticaçãoToken(remente: Remetente)
    +autenticar(): void
}


DecoradorDePacote - - -^ Pacote
DecoradorDeRemetente - - -^ Remetente
DecoradorDePacoteCriptografiaRSA - - -^ DecoradorDePacote
DecoradorDePacoteCriptografiaDES - - -^ DecoradorDePacote
DecoradorDeAutenticaçãoSenha - - -^ DecoradorDeRemetente
DecoradorDeAutenticaçãoToken - - -^ DecoradorDeRemetente

@enduml

PlantUML version 1.2021.13(Mon Nov 01 12:38:45 CET 2021)
(GPL source distribution)
Java Runtime: OpenJDK Runtime Environment
JVM: OpenJDK 64-Bit Server VM
Default Encoding: UTF-8
Language: pt
Country: BR
--></g></svg>