<?xml version="1.0" encoding="UTF-8" standalone="no"?><svg xmlns="http://www.w3.org/2000/svg" xmlns:xlink="http://www.w3.org/1999/xlink" contentScriptType="application/ecmascript" contentStyleType="text/css" height="510px" preserveAspectRatio="none" style="width:1489px;height:510px;background:#FFFFFF;" version="1.1" viewBox="0 0 1489 510" width="1489px" zoomAndPan="magnify"><defs><filter height="300%" id="f188lcxv1v8xwm" width="300%" x="-1" y="-1"><feGaussianBlur result="blurOut" stdDeviation="2.0"/><feColorMatrix in="blurOut" result="blurOut2" type="matrix" values="0 0 0 0 0 0 0 0 0 0 0 0 0 0 0 0 0 0 .4 0"/><feOffset dx="4.0" dy="4.0" in="blurOut2" result="blurOut3"/><feBlend in="SourceGraphic" in2="blurOut3" mode="normal"/></filter></defs><g><!--MD5=[e73472e7a53cfeb74920d5aed4e6c4a7]
class Remetente--><rect codeLine="125" fill="#FEFECE" filter="url(#f188lcxv1v8xwm)" height="99.8203" id="Remetente" style="stroke:#A80036;stroke-width:1.5;" width="249" x="278.5" y="397"/><ellipse cx="367.75" cy="413" fill="#B4A7E5" rx="11" ry="11" style="stroke:#A80036;stroke-width:1.0;"/><path d="M364.1777,409.2651 L364.1777,407.1069 L371.5571,407.1069 L371.5571,409.2651 L369.0918,409.2651 L369.0918,417.3418 L371.5571,417.3418 L371.5571,419.5 L364.1777,419.5 L364.1777,417.3418 L366.6431,417.3418 L366.6431,409.2651 Z " fill="#000000"/><text fill="#000000" font-family="sans-serif" font-size="12" font-style="italic" lengthAdjust="spacing" textLength="62" x="388.25" y="417.5352">Remetente</text><line style="stroke:#A80036;stroke-width:1.5;" x1="279.5" x2="526.5" y1="429" y2="429"/><line style="stroke:#A80036;stroke-width:1.5;" x1="279.5" x2="526.5" y1="437" y2="437"/><ellipse cx="289.5" cy="448" fill="#84BE84" rx="3" ry="3" style="stroke:#038048;stroke-width:1.0;"/><text fill="#000000" font-family="sans-serif" font-size="11" lengthAdjust="spacing" textLength="223" x="298.5" y="451.6348">connect(String: enderecoDeDestino): void</text><ellipse cx="289.5" cy="460.9551" fill="#84BE84" rx="3" ry="3" style="stroke:#038048;stroke-width:1.0;"/><text fill="#000000" font-family="sans-serif" font-size="11" lengthAdjust="spacing" textLength="91" x="298.5" y="464.5898">autenticar(): void</text><ellipse cx="289.5" cy="473.9102" fill="#84BE84" rx="3" ry="3" style="stroke:#038048;stroke-width:1.0;"/><text fill="#000000" font-family="sans-serif" font-size="11" lengthAdjust="spacing" textLength="134" x="298.5" y="477.5449">send(Pacote dados): void</text><ellipse cx="289.5" cy="486.8652" fill="#84BE84" rx="3" ry="3" style="stroke:#038048;stroke-width:1.0;"/><text fill="#000000" font-family="sans-serif" font-size="11" lengthAdjust="spacing" textLength="65" x="298.5" y="490.5">close(): void</text><!--MD5=[56a626a10b5a503e14b6b13e30456ed8]
class Pacote--><rect codeLine="132" fill="#FEFECE" filter="url(#f188lcxv1v8xwm)" height="73.9102" id="Pacote" style="stroke:#A80036;stroke-width:1.5;" width="212" x="1049" y="410"/><ellipse cx="1131.75" cy="426" fill="#B4A7E5" rx="11" ry="11" style="stroke:#A80036;stroke-width:1.0;"/><path d="M1128.1777,422.2651 L1128.1777,420.1069 L1135.5571,420.1069 L1135.5571,422.2651 L1133.0918,422.2651 L1133.0918,430.3418 L1135.5571,430.3418 L1135.5571,432.5 L1128.1777,432.5 L1128.1777,430.3418 L1130.6431,430.3418 L1130.6431,422.2651 Z " fill="#000000"/><text fill="#000000" font-family="sans-serif" font-size="12" font-style="italic" lengthAdjust="spacing" textLength="38" x="1152.25" y="430.5352">Pacote</text><line style="stroke:#A80036;stroke-width:1.5;" x1="1050" x2="1260" y1="442" y2="442"/><line style="stroke:#A80036;stroke-width:1.5;" x1="1050" x2="1260" y1="450" y2="450"/><ellipse cx="1060" cy="461" fill="#84BE84" rx="3" ry="3" style="stroke:#038048;stroke-width:1.0;"/><text fill="#000000" font-family="sans-serif" font-size="11" lengthAdjust="spacing" textLength="186" x="1069" y="464.6348">prepararDados(String dados): void</text><ellipse cx="1060" cy="473.9551" fill="#84BE84" rx="3" ry="3" style="stroke:#038048;stroke-width:1.0;"/><text fill="#000000" font-family="sans-serif" font-size="11" lengthAdjust="spacing" textLength="102" x="1069" y="477.5898">criptografar(): void</text><!--MD5=[c3636f9076f82c104c3aa4dc63ce89b1]
class DecoradorDePacote--><rect codeLine="137" fill="#FEFECE" filter="url(#f188lcxv1v8xwm)" height="60.9551" id="DecoradorDePacote" style="stroke:#A80036;stroke-width:1.5;" width="147" x="1081.5" y="215"/><ellipse cx="1096.5" cy="231" fill="#A9DCDF" rx="11" ry="11" style="stroke:#A80036;stroke-width:1.0;"/><path d="M1096.3633,226.3481 L1095.2095,231.4199 L1097.5254,231.4199 Z M1094.8691,224.1069 L1097.8657,224.1069 L1101.2109,236.5 L1098.7622,236.5 L1097.9985,233.437 L1094.7197,233.437 L1093.9727,236.5 L1091.5239,236.5 Z " fill="#000000"/><text fill="#000000" font-family="sans-serif" font-size="12" font-style="italic" lengthAdjust="spacing" textLength="115" x="1110.5" y="235.5352">DecoradorDePacote</text><line style="stroke:#A80036;stroke-width:1.5;" x1="1082.5" x2="1227.5" y1="247" y2="247"/><line style="stroke:#A80036;stroke-width:1.5;" x1="1082.5" x2="1227.5" y1="255" y2="255"/><ellipse cx="1092.5" cy="266" fill="#84BE84" rx="3" ry="3" style="stroke:#038048;stroke-width:1.0;"/><text fill="#000000" font-family="sans-serif" font-size="11" lengthAdjust="spacing" textLength="91" x="1101.5" y="269.6348">autenticar(): void</text><!--MD5=[225c2791e7c41f6ef5ac5fa7c8763bc7]
class DecoradorDeRemetente--><rect codeLine="141" fill="#FEFECE" filter="url(#f188lcxv1v8xwm)" height="60.9551" id="DecoradorDeRemetente" style="stroke:#A80036;stroke-width:1.5;" width="171" x="317.5" y="215"/><ellipse cx="332.5" cy="231" fill="#A9DCDF" rx="11" ry="11" style="stroke:#A80036;stroke-width:1.0;"/><path d="M332.3633,226.3481 L331.2095,231.4199 L333.5254,231.4199 Z M330.8691,224.1069 L333.8657,224.1069 L337.2109,236.5 L334.7622,236.5 L333.9985,233.437 L330.7197,233.437 L329.9727,236.5 L327.5239,236.5 Z " fill="#000000"/><text fill="#000000" font-family="sans-serif" font-size="12" font-style="italic" lengthAdjust="spacing" textLength="139" x="346.5" y="235.5352">DecoradorDeRemetente</text><line style="stroke:#A80036;stroke-width:1.5;" x1="318.5" x2="487.5" y1="247" y2="247"/><line style="stroke:#A80036;stroke-width:1.5;" x1="318.5" x2="487.5" y1="255" y2="255"/><ellipse cx="328.5" cy="266" fill="#84BE84" rx="3" ry="3" style="stroke:#038048;stroke-width:1.0;"/><text fill="#000000" font-family="sans-serif" font-size="11" lengthAdjust="spacing" textLength="102" x="337.5" y="269.6348">criptografar(): void</text><!--MD5=[6abcec386f8ce02819d5fab808901827]
class DecoradorDePacoteCriptografiaRSA--><rect codeLine="145" fill="#FEFECE" filter="url(#f188lcxv1v8xwm)" height="86.8652" id="DecoradorDePacoteCriptografiaRSA" style="stroke:#A80036;stroke-width:1.5;" width="303" x="834.5" y="7"/><ellipse cx="879.25" cy="23" fill="#ADD1B2" rx="11" ry="11" style="stroke:#A80036;stroke-width:1.0;"/><path d="M881.7231,29.1431 Q881.1421,29.4419 880.5029,29.5913 Q879.8638,29.7407 879.1582,29.7407 Q876.6514,29.7407 875.3315,28.0889 Q874.0117,26.437 874.0117,23.3159 Q874.0117,20.1865 875.3315,18.5347 Q876.6514,16.8828 879.1582,16.8828 Q879.8638,16.8828 880.5112,17.0322 Q881.1587,17.1816 881.7231,17.4805 L881.7231,20.2031 Q881.0923,19.6221 880.4988,19.3523 Q879.9053,19.0825 879.2744,19.0825 Q877.9297,19.0825 877.2449,20.1492 Q876.5601,21.2158 876.5601,23.3159 Q876.5601,25.4077 877.2449,26.4744 Q877.9297,27.541 879.2744,27.541 Q879.9053,27.541 880.4988,27.2712 Q881.0923,27.0015 881.7231,26.4204 Z " fill="#000000"/><text fill="#000000" font-family="sans-serif" font-size="12" lengthAdjust="spacing" textLength="205" x="899.75" y="27.5352">DecoradorDePacoteCriptografiaRSA</text><line style="stroke:#A80036;stroke-width:1.5;" x1="835.5" x2="1136.5" y1="39" y2="39"/><rect fill="none" height="6" style="stroke:#C82930;stroke-width:1.0;" width="6" x="842.5" y="47"/><text fill="#000000" font-family="sans-serif" font-size="11" lengthAdjust="spacing" textLength="77" x="854.5" y="53.6348">pacote: Pacote</text><line style="stroke:#A80036;stroke-width:1.5;" x1="835.5" x2="1136.5" y1="59.9551" y2="59.9551"/><ellipse cx="845.5" cy="70.9551" fill="#84BE84" rx="3" ry="3" style="stroke:#038048;stroke-width:1.0;"/><text fill="#000000" font-family="sans-serif" font-size="11" lengthAdjust="spacing" textLength="277" x="854.5" y="74.5898">DecoradorDePacoteCriptografiaRSA(pacote: Pacote)</text><ellipse cx="845.5" cy="83.9102" fill="#84BE84" rx="3" ry="3" style="stroke:#038048;stroke-width:1.0;"/><text fill="#000000" font-family="sans-serif" font-size="11" lengthAdjust="spacing" textLength="102" x="854.5" y="87.5449">criptografar(): void</text><!--MD5=[4bbf1019dfa826bcbd09291e492ae1e1]
class DecoradorDePacoteCriptografiaDES--><rect codeLine="151" fill="#FEFECE" filter="url(#f188lcxv1v8xwm)" height="86.8652" id="DecoradorDePacoteCriptografiaDES" style="stroke:#A80036;stroke-width:1.5;" width="302" x="1173" y="7"/><ellipse cx="1217.25" cy="23" fill="#ADD1B2" rx="11" ry="11" style="stroke:#A80036;stroke-width:1.0;"/><path d="M1219.7231,29.1431 Q1219.1421,29.4419 1218.5029,29.5913 Q1217.8638,29.7407 1217.1582,29.7407 Q1214.6514,29.7407 1213.3315,28.0889 Q1212.0117,26.437 1212.0117,23.3159 Q1212.0117,20.1865 1213.3315,18.5347 Q1214.6514,16.8828 1217.1582,16.8828 Q1217.8638,16.8828 1218.5112,17.0322 Q1219.1587,17.1816 1219.7231,17.4805 L1219.7231,20.2031 Q1219.0923,19.6221 1218.4988,19.3523 Q1217.9053,19.0825 1217.2744,19.0825 Q1215.9297,19.0825 1215.2449,20.1492 Q1214.5601,21.2158 1214.5601,23.3159 Q1214.5601,25.4077 1215.2449,26.4744 Q1215.9297,27.541 1217.2744,27.541 Q1217.9053,27.541 1218.4988,27.2712 Q1219.0923,27.0015 1219.7231,26.4204 Z " fill="#000000"/><text fill="#000000" font-family="sans-serif" font-size="12" lengthAdjust="spacing" textLength="205" x="1237.75" y="27.5352">DecoradorDePacoteCriptografiaDES</text><line style="stroke:#A80036;stroke-width:1.5;" x1="1174" x2="1474" y1="39" y2="39"/><rect fill="none" height="6" style="stroke:#C82930;stroke-width:1.0;" width="6" x="1181" y="47"/><text fill="#000000" font-family="sans-serif" font-size="11" lengthAdjust="spacing" textLength="77" x="1193" y="53.6348">pacote: Pacote</text><line style="stroke:#A80036;stroke-width:1.5;" x1="1174" x2="1474" y1="59.9551" y2="59.9551"/><ellipse cx="1184" cy="70.9551" fill="#84BE84" rx="3" ry="3" style="stroke:#038048;stroke-width:1.0;"/><text fill="#000000" font-family="sans-serif" font-size="11" lengthAdjust="spacing" textLength="276" x="1193" y="74.5898">DecoradorDePacoteCriptografiaDES(pacote: Pacote)</text><ellipse cx="1184" cy="83.9102" fill="#84BE84" rx="3" ry="3" style="stroke:#038048;stroke-width:1.0;"/><text fill="#000000" font-family="sans-serif" font-size="11" lengthAdjust="spacing" textLength="102" x="1193" y="87.5449">criptografar(): void</text><!--MD5=[942a23df43c9c4037c31af6ba63b5c28]
class DecoradorDeAutenticaçãoCriptografiaSenha--><rect codeLine="157" fill="#FEFECE" filter="url(#f188lcxv1v8xwm)" height="86.8652" id="DecoradorDeAutenticaçãoCriptografiaSenha" style="stroke:#A80036;stroke-width:1.5;" width="378" x="7" y="7"/><ellipse cx="65.75" cy="23" fill="#ADD1B2" rx="11" ry="11" style="stroke:#A80036;stroke-width:1.0;"/><path d="M68.2231,29.1431 Q67.6421,29.4419 67.0029,29.5913 Q66.3638,29.7407 65.6582,29.7407 Q63.1514,29.7407 61.8315,28.0889 Q60.5117,26.437 60.5117,23.3159 Q60.5117,20.1865 61.8315,18.5347 Q63.1514,16.8828 65.6582,16.8828 Q66.3638,16.8828 67.0112,17.0322 Q67.6587,17.1816 68.2231,17.4805 L68.2231,20.2031 Q67.5923,19.6221 66.9988,19.3523 Q66.4053,19.0825 65.7744,19.0825 Q64.4297,19.0825 63.7449,20.1492 Q63.0601,21.2158 63.0601,23.3159 Q63.0601,25.4077 63.7449,26.4744 Q64.4297,27.541 65.7744,27.541 Q66.4053,27.541 66.9988,27.2712 Q67.5923,27.0015 68.2231,26.4204 Z " fill="#000000"/><text fill="#000000" font-family="sans-serif" font-size="12" lengthAdjust="spacing" textLength="252" x="86.25" y="27.5352">DecoradorDeAutenticaçãoCriptografiaSenha</text><line style="stroke:#A80036;stroke-width:1.5;" x1="8" x2="384" y1="39" y2="39"/><rect fill="none" height="6" style="stroke:#C82930;stroke-width:1.0;" width="6" x="15" y="47"/><text fill="#000000" font-family="sans-serif" font-size="11" lengthAdjust="spacing" textLength="116" x="27" y="53.6348">remetente: Remetente</text><line style="stroke:#A80036;stroke-width:1.5;" x1="8" x2="384" y1="59.9551" y2="59.9551"/><ellipse cx="18" cy="70.9551" fill="#84BE84" rx="3" ry="3" style="stroke:#038048;stroke-width:1.0;"/><text fill="#000000" font-family="sans-serif" font-size="11" lengthAdjust="spacing" textLength="352" x="27" y="74.5898">DecoradorDeAutenticaçãoCriptografiaSenha(remente: Remetente)</text><ellipse cx="18" cy="83.9102" fill="#84BE84" rx="3" ry="3" style="stroke:#038048;stroke-width:1.0;"/><text fill="#000000" font-family="sans-serif" font-size="11" lengthAdjust="spacing" textLength="91" x="27" y="87.5449">autenticar(): void</text><!--MD5=[485f038cd176dcaeb0a318af6c3cee20]
class DecoradorDeAutenticaçãoCriptografiaToken--><rect codeLine="163" fill="#FEFECE" filter="url(#f188lcxv1v8xwm)" height="86.8652" id="DecoradorDeAutenticaçãoCriptografiaToken" style="stroke:#A80036;stroke-width:1.5;" width="379" x="420.5" y="7"/><ellipse cx="478.75" cy="23" fill="#ADD1B2" rx="11" ry="11" style="stroke:#A80036;stroke-width:1.0;"/><path d="M481.2231,29.1431 Q480.6421,29.4419 480.0029,29.5913 Q479.3638,29.7407 478.6582,29.7407 Q476.1514,29.7407 474.8315,28.0889 Q473.5117,26.437 473.5117,23.3159 Q473.5117,20.1865 474.8315,18.5347 Q476.1514,16.8828 478.6582,16.8828 Q479.3638,16.8828 480.0112,17.0322 Q480.6587,17.1816 481.2231,17.4805 L481.2231,20.2031 Q480.5923,19.6221 479.9988,19.3523 Q479.4053,19.0825 478.7744,19.0825 Q477.4297,19.0825 476.7449,20.1492 Q476.0601,21.2158 476.0601,23.3159 Q476.0601,25.4077 476.7449,26.4744 Q477.4297,27.541 478.7744,27.541 Q479.4053,27.541 479.9988,27.2712 Q480.5923,27.0015 481.2231,26.4204 Z " fill="#000000"/><text fill="#000000" font-family="sans-serif" font-size="12" lengthAdjust="spacing" textLength="254" x="499.25" y="27.5352">DecoradorDeAutenticaçãoCriptografiaToken</text><line style="stroke:#A80036;stroke-width:1.5;" x1="421.5" x2="798.5" y1="39" y2="39"/><rect fill="none" height="6" style="stroke:#C82930;stroke-width:1.0;" width="6" x="428.5" y="47"/><text fill="#000000" font-family="sans-serif" font-size="11" lengthAdjust="spacing" textLength="116" x="440.5" y="53.6348">remetente: Remetente</text><line style="stroke:#A80036;stroke-width:1.5;" x1="421.5" x2="798.5" y1="59.9551" y2="59.9551"/><ellipse cx="431.5" cy="70.9551" fill="#84BE84" rx="3" ry="3" style="stroke:#038048;stroke-width:1.0;"/><text fill="#000000" font-family="sans-serif" font-size="11" lengthAdjust="spacing" textLength="353" x="440.5" y="74.5898">DecoradorDeAutenticaçãoCriptografiaToken(remente: Remetente)</text><ellipse cx="431.5" cy="83.9102" fill="#84BE84" rx="3" ry="3" style="stroke:#038048;stroke-width:1.0;"/><text fill="#000000" font-family="sans-serif" font-size="11" lengthAdjust="spacing" textLength="91" x="440.5" y="87.5449">autenticar(): void</text><!--MD5=[3972d1f2dd835d96ed2d27ba558de47e]
link DecoradorDePacote to Pacote--><path codeLine="170" d="M1155,276.37 C1155,306.24 1155,352.92 1155,389.75 " fill="none" id="DecoradorDePacote-to-Pacote" style="stroke:#A80036;stroke-width:1.0;"/><polygon fill="none" points="1162,389.84,1155,409.84,1148,389.84,1162,389.84" style="stroke:#A80036;stroke-width:1.0;"/><!--MD5=[b0bc25f8b2ac4c759460bffc8bb2a551]
link DecoradorDeRemetente to Remetente--><path codeLine="171" d="M403,276.37 C403,302.74 403,342.22 403,376.45 " fill="none" id="DecoradorDeRemetente-to-Remetente" style="stroke:#A80036;stroke-width:1.0;"/><polygon fill="none" points="410,376.92,403,396.92,396,376.92,410,376.92" style="stroke:#A80036;stroke-width:1.0;"/><!--MD5=[84a69ba86fc46f437bee1720bf30de3d]
link DecoradorDePacoteCriptografiaRSA to DecoradorDePacote--><path codeLine="172" d="M1023.51,94.33 C1050.96,125.68 1088.11,168.12 1115.93,199.88 " fill="none" id="DecoradorDePacoteCriptografiaRSA-to-DecoradorDePacote" style="stroke:#A80036;stroke-width:1.0;"/><polygon fill="none" points="1121.22,195.3,1129.13,214.96,1110.69,204.52,1121.22,195.3" style="stroke:#A80036;stroke-width:1.0;"/><!--MD5=[d0f92c295c7d4dec56684cfe91b8487c]
link DecoradorDePacoteCriptografiaDES to DecoradorDePacote--><path codeLine="173" d="M1286.49,94.33 C1259.04,125.68 1221.89,168.12 1194.07,199.88 " fill="none" id="DecoradorDePacoteCriptografiaDES-to-DecoradorDePacote" style="stroke:#A80036;stroke-width:1.0;"/><polygon fill="none" points="1199.31,204.52,1180.87,214.96,1188.78,195.3,1199.31,204.52" style="stroke:#A80036;stroke-width:1.0;"/><!--MD5=[710291aff38317b7843f45f31a72da39]
link DecoradorDeAutenticaçãoCriptografiaSenha to DecoradorDeRemetente--><path codeLine="174" d="M241.68,94.09 C275.76,125.86 322.14,169.1 356.42,201.07 " fill="none" id="DecoradorDeAutenticaçãoCriptografiaSenha-to-DecoradorDeRemetente" style="stroke:#A80036;stroke-width:1.0;"/><polygon fill="none" points="361.38,196.12,371.23,214.88,351.83,206.36,361.38,196.12" style="stroke:#A80036;stroke-width:1.0;"/><!--MD5=[e79dabb9cdbad890f08be02e2050a163]
link DecoradorDeAutenticaçãoCriptografiaToken to DecoradorDeRemetente--><path codeLine="175" d="M564.32,94.09 C530.24,125.86 483.86,169.1 449.58,201.07 " fill="none" id="DecoradorDeAutenticaçãoCriptografiaToken-to-DecoradorDeRemetente" style="stroke:#A80036;stroke-width:1.0;"/><polygon fill="none" points="454.17,206.36,434.77,214.88,444.62,196.12,454.17,206.36" style="stroke:#A80036;stroke-width:1.0;"/><!--MD5=[4dae37f59641e2661b34610ce3d50408]
@startuml Decorators
interface Remetente {
    +connect(String: enderecoDeDestino): void
    +autenticar(): void
    +send(Pacote dados): void
    +close(): void 
}

interface Pacote {
    +prepararDados(String dados): void
    +criptografar(): void
}

abstract class DecoradorDePacote {
    +autenticar(): void
}

abstract class DecoradorDeRemetente {
    +criptografar(): void
}

class DecoradorDePacoteCriptografiaRSA {
    -pacote: Pacote
    +DecoradorDePacoteCriptografiaRSA(pacote: Pacote)
    +criptografar(): void
}

class DecoradorDePacoteCriptografiaDES {
    -pacote: Pacote
    +DecoradorDePacoteCriptografiaDES(pacote: Pacote)
    +criptografar(): void
}

class DecoradorDeAutenticaçãoCriptografiaSenha {
    -remetente: Remetente
    +DecoradorDeAutenticaçãoCriptografiaSenha(remente: Remetente)
    +autenticar(): void
}

class DecoradorDeAutenticaçãoCriptografiaToken {
    -remetente: Remetente
    +DecoradorDeAutenticaçãoCriptografiaToken(remente: Remetente)
    +autenticar(): void
}


DecoradorDePacote - - -^ Pacote
DecoradorDeRemetente - - -^ Remetente
DecoradorDePacoteCriptografiaRSA - - -^ DecoradorDePacote
DecoradorDePacoteCriptografiaDES - - -^ DecoradorDePacote
DecoradorDeAutenticaçãoCriptografiaSenha - - -^ DecoradorDeRemetente
DecoradorDeAutenticaçãoCriptografiaToken - - -^ DecoradorDeRemetente

@enduml

PlantUML version 1.2021.13(Mon Nov 01 12:38:45 CET 2021)
(GPL source distribution)
Java Runtime: OpenJDK Runtime Environment
JVM: OpenJDK 64-Bit Server VM
Default Encoding: UTF-8
Language: pt
Country: BR
--></g></svg>