<?xml version="1.0" encoding="UTF-8" standalone="no"?><svg xmlns="http://www.w3.org/2000/svg" xmlns:xlink="http://www.w3.org/1999/xlink" contentScriptType="application/ecmascript" contentStyleType="text/css" height="510px" preserveAspectRatio="none" style="width:1424px;height:510px;background:#FFFFFF;" version="1.1" viewBox="0 0 1424 510" width="1424px" zoomAndPan="magnify"><defs><filter height="300%" id="f37nuhf9h1bbx" width="300%" x="-1" y="-1"><feGaussianBlur result="blurOut" stdDeviation="2.0"/><feColorMatrix in="blurOut" result="blurOut2" type="matrix" values="0 0 0 0 0 0 0 0 0 0 0 0 0 0 0 0 0 0 .4 0"/><feOffset dx="4.0" dy="4.0" in="blurOut2" result="blurOut3"/><feBlend in="SourceGraphic" in2="blurOut3" mode="normal"/></filter></defs><g><!--MD5=[e73472e7a53cfeb74920d5aed4e6c4a7]
class Remetente--><rect codeLine="127" fill="#FEFECE" filter="url(#f37nuhf9h1bbx)" height="99.8203" id="Remetente" style="stroke:#A80036;stroke-width:1.5;" width="249" x="262.5" y="397"/><ellipse cx="351.75" cy="413" fill="#B4A7E5" rx="11" ry="11" style="stroke:#A80036;stroke-width:1.0;"/><path d="M348.1777,409.2651 L348.1777,407.1069 L355.5571,407.1069 L355.5571,409.2651 L353.0918,409.2651 L353.0918,417.3418 L355.5571,417.3418 L355.5571,419.5 L348.1777,419.5 L348.1777,417.3418 L350.6431,417.3418 L350.6431,409.2651 Z " fill="#000000"/><text fill="#000000" font-family="sans-serif" font-size="12" font-style="italic" lengthAdjust="spacing" textLength="62" x="372.25" y="417.5352">Remetente</text><line style="stroke:#A80036;stroke-width:1.5;" x1="263.5" x2="510.5" y1="429" y2="429"/><line style="stroke:#A80036;stroke-width:1.5;" x1="263.5" x2="510.5" y1="437" y2="437"/><ellipse cx="273.5" cy="448" fill="#84BE84" rx="3" ry="3" style="stroke:#038048;stroke-width:1.0;"/><text fill="#000000" font-family="sans-serif" font-size="11" lengthAdjust="spacing" textLength="223" x="282.5" y="451.6348">connect(String: enderecoDeDestino): void</text><ellipse cx="273.5" cy="460.9551" fill="#84BE84" rx="3" ry="3" style="stroke:#038048;stroke-width:1.0;"/><text fill="#000000" font-family="sans-serif" font-size="11" lengthAdjust="spacing" textLength="91" x="282.5" y="464.5898">autenticar(): void</text><ellipse cx="273.5" cy="473.9102" fill="#84BE84" rx="3" ry="3" style="stroke:#038048;stroke-width:1.0;"/><text fill="#000000" font-family="sans-serif" font-size="11" lengthAdjust="spacing" textLength="134" x="282.5" y="477.5449">send(Pacote dados): void</text><ellipse cx="273.5" cy="486.8652" fill="#84BE84" rx="3" ry="3" style="stroke:#038048;stroke-width:1.0;"/><text fill="#000000" font-family="sans-serif" font-size="11" lengthAdjust="spacing" textLength="65" x="282.5" y="490.5">close(): void</text><!--MD5=[56a626a10b5a503e14b6b13e30456ed8]
class Pacote--><rect codeLine="134" fill="#FEFECE" filter="url(#f37nuhf9h1bbx)" height="73.9102" id="Pacote" style="stroke:#A80036;stroke-width:1.5;" width="212" x="984" y="410"/><ellipse cx="1066.75" cy="426" fill="#B4A7E5" rx="11" ry="11" style="stroke:#A80036;stroke-width:1.0;"/><path d="M1063.1777,422.2651 L1063.1777,420.1069 L1070.5571,420.1069 L1070.5571,422.2651 L1068.0918,422.2651 L1068.0918,430.3418 L1070.5571,430.3418 L1070.5571,432.5 L1063.1777,432.5 L1063.1777,430.3418 L1065.6431,430.3418 L1065.6431,422.2651 Z " fill="#000000"/><text fill="#000000" font-family="sans-serif" font-size="12" font-style="italic" lengthAdjust="spacing" textLength="38" x="1087.25" y="430.5352">Pacote</text><line style="stroke:#A80036;stroke-width:1.5;" x1="985" x2="1195" y1="442" y2="442"/><line style="stroke:#A80036;stroke-width:1.5;" x1="985" x2="1195" y1="450" y2="450"/><ellipse cx="995" cy="461" fill="#84BE84" rx="3" ry="3" style="stroke:#038048;stroke-width:1.0;"/><text fill="#000000" font-family="sans-serif" font-size="11" lengthAdjust="spacing" textLength="186" x="1004" y="464.6348">prepararDados(String dados): void</text><ellipse cx="995" cy="473.9551" fill="#84BE84" rx="3" ry="3" style="stroke:#038048;stroke-width:1.0;"/><text fill="#000000" font-family="sans-serif" font-size="11" lengthAdjust="spacing" textLength="102" x="1004" y="477.5898">criptografar(): void</text><!--MD5=[c3636f9076f82c104c3aa4dc63ce89b1]
class DecoradorDePacote--><rect codeLine="139" fill="#FEFECE" filter="url(#f37nuhf9h1bbx)" height="60.9551" id="DecoradorDePacote" style="stroke:#A80036;stroke-width:1.5;" width="147" x="1016.5" y="215"/><ellipse cx="1031.5" cy="231" fill="#A9DCDF" rx="11" ry="11" style="stroke:#A80036;stroke-width:1.0;"/><path d="M1031.3633,226.3481 L1030.2095,231.4199 L1032.5254,231.4199 Z M1029.8691,224.1069 L1032.8657,224.1069 L1036.2109,236.5 L1033.7622,236.5 L1032.9985,233.437 L1029.7197,233.437 L1028.9727,236.5 L1026.5239,236.5 Z " fill="#000000"/><text fill="#000000" font-family="sans-serif" font-size="12" font-style="italic" lengthAdjust="spacing" textLength="115" x="1045.5" y="235.5352">DecoradorDePacote</text><line style="stroke:#A80036;stroke-width:1.5;" x1="1017.5" x2="1162.5" y1="247" y2="247"/><line style="stroke:#A80036;stroke-width:1.5;" x1="1017.5" x2="1162.5" y1="255" y2="255"/><ellipse cx="1027.5" cy="266" fill="#84BE84" rx="3" ry="3" style="stroke:#038048;stroke-width:1.0;"/><text fill="#000000" font-family="sans-serif" font-size="11" lengthAdjust="spacing" textLength="91" x="1036.5" y="269.6348">autenticar(): void</text><!--MD5=[225c2791e7c41f6ef5ac5fa7c8763bc7]
class DecoradorDeRemetente--><rect codeLine="143" fill="#FEFECE" filter="url(#f37nuhf9h1bbx)" height="60.9551" id="DecoradorDeRemetente" style="stroke:#A80036;stroke-width:1.5;" width="171" x="301.5" y="215"/><ellipse cx="316.5" cy="231" fill="#A9DCDF" rx="11" ry="11" style="stroke:#A80036;stroke-width:1.0;"/><path d="M316.3633,226.3481 L315.2095,231.4199 L317.5254,231.4199 Z M314.8691,224.1069 L317.8657,224.1069 L321.2109,236.5 L318.7622,236.5 L317.9985,233.437 L314.7197,233.437 L313.9727,236.5 L311.5239,236.5 Z " fill="#000000"/><text fill="#000000" font-family="sans-serif" font-size="12" font-style="italic" lengthAdjust="spacing" textLength="139" x="330.5" y="235.5352">DecoradorDeRemetente</text><line style="stroke:#A80036;stroke-width:1.5;" x1="302.5" x2="471.5" y1="247" y2="247"/><line style="stroke:#A80036;stroke-width:1.5;" x1="302.5" x2="471.5" y1="255" y2="255"/><ellipse cx="312.5" cy="266" fill="#84BE84" rx="3" ry="3" style="stroke:#038048;stroke-width:1.0;"/><text fill="#000000" font-family="sans-serif" font-size="11" lengthAdjust="spacing" textLength="102" x="321.5" y="269.6348">criptografar(): void</text><!--MD5=[6abcec386f8ce02819d5fab808901827]
class DecoradorDePacoteCriptografiaRSA--><rect codeLine="147" fill="#FEFECE" filter="url(#f37nuhf9h1bbx)" height="86.8652" id="DecoradorDePacoteCriptografiaRSA" style="stroke:#A80036;stroke-width:1.5;" width="303" x="769.5" y="7"/><ellipse cx="814.25" cy="23" fill="#ADD1B2" rx="11" ry="11" style="stroke:#A80036;stroke-width:1.0;"/><path d="M816.7231,29.1431 Q816.1421,29.4419 815.5029,29.5913 Q814.8638,29.7407 814.1582,29.7407 Q811.6514,29.7407 810.3315,28.0889 Q809.0117,26.437 809.0117,23.3159 Q809.0117,20.1865 810.3315,18.5347 Q811.6514,16.8828 814.1582,16.8828 Q814.8638,16.8828 815.5112,17.0322 Q816.1587,17.1816 816.7231,17.4805 L816.7231,20.2031 Q816.0923,19.6221 815.4988,19.3523 Q814.9053,19.0825 814.2744,19.0825 Q812.9297,19.0825 812.2449,20.1492 Q811.5601,21.2158 811.5601,23.3159 Q811.5601,25.4077 812.2449,26.4744 Q812.9297,27.541 814.2744,27.541 Q814.9053,27.541 815.4988,27.2712 Q816.0923,27.0015 816.7231,26.4204 Z " fill="#000000"/><text fill="#000000" font-family="sans-serif" font-size="12" lengthAdjust="spacing" textLength="205" x="834.75" y="27.5352">DecoradorDePacoteCriptografiaRSA</text><line style="stroke:#A80036;stroke-width:1.5;" x1="770.5" x2="1071.5" y1="39" y2="39"/><rect fill="none" height="6" style="stroke:#C82930;stroke-width:1.0;" width="6" x="777.5" y="47"/><text fill="#000000" font-family="sans-serif" font-size="11" lengthAdjust="spacing" textLength="77" x="789.5" y="53.6348">pacote: Pacote</text><line style="stroke:#A80036;stroke-width:1.5;" x1="770.5" x2="1071.5" y1="59.9551" y2="59.9551"/><ellipse cx="780.5" cy="70.9551" fill="#84BE84" rx="3" ry="3" style="stroke:#038048;stroke-width:1.0;"/><text fill="#000000" font-family="sans-serif" font-size="11" lengthAdjust="spacing" textLength="277" x="789.5" y="74.5898">DecoradorDePacoteCriptografiaRSA(pacote: Pacote)</text><ellipse cx="780.5" cy="83.9102" fill="#84BE84" rx="3" ry="3" style="stroke:#038048;stroke-width:1.0;"/><text fill="#000000" font-family="sans-serif" font-size="11" lengthAdjust="spacing" textLength="102" x="789.5" y="87.5449">criptografar(): void</text><!--MD5=[4bbf1019dfa826bcbd09291e492ae1e1]
class DecoradorDePacoteCriptografiaDES--><rect codeLine="153" fill="#FEFECE" filter="url(#f37nuhf9h1bbx)" height="86.8652" id="DecoradorDePacoteCriptografiaDES" style="stroke:#A80036;stroke-width:1.5;" width="302" x="1108" y="7"/><ellipse cx="1152.25" cy="23" fill="#ADD1B2" rx="11" ry="11" style="stroke:#A80036;stroke-width:1.0;"/><path d="M1154.7231,29.1431 Q1154.1421,29.4419 1153.5029,29.5913 Q1152.8638,29.7407 1152.1582,29.7407 Q1149.6514,29.7407 1148.3315,28.0889 Q1147.0117,26.437 1147.0117,23.3159 Q1147.0117,20.1865 1148.3315,18.5347 Q1149.6514,16.8828 1152.1582,16.8828 Q1152.8638,16.8828 1153.5112,17.0322 Q1154.1587,17.1816 1154.7231,17.4805 L1154.7231,20.2031 Q1154.0923,19.6221 1153.4988,19.3523 Q1152.9053,19.0825 1152.2744,19.0825 Q1150.9297,19.0825 1150.2449,20.1492 Q1149.5601,21.2158 1149.5601,23.3159 Q1149.5601,25.4077 1150.2449,26.4744 Q1150.9297,27.541 1152.2744,27.541 Q1152.9053,27.541 1153.4988,27.2712 Q1154.0923,27.0015 1154.7231,26.4204 Z " fill="#000000"/><text fill="#000000" font-family="sans-serif" font-size="12" lengthAdjust="spacing" textLength="205" x="1172.75" y="27.5352">DecoradorDePacoteCriptografiaDES</text><line style="stroke:#A80036;stroke-width:1.5;" x1="1109" x2="1409" y1="39" y2="39"/><rect fill="none" height="6" style="stroke:#C82930;stroke-width:1.0;" width="6" x="1116" y="47"/><text fill="#000000" font-family="sans-serif" font-size="11" lengthAdjust="spacing" textLength="77" x="1128" y="53.6348">pacote: Pacote</text><line style="stroke:#A80036;stroke-width:1.5;" x1="1109" x2="1409" y1="59.9551" y2="59.9551"/><ellipse cx="1119" cy="70.9551" fill="#84BE84" rx="3" ry="3" style="stroke:#038048;stroke-width:1.0;"/><text fill="#000000" font-family="sans-serif" font-size="11" lengthAdjust="spacing" textLength="276" x="1128" y="74.5898">DecoradorDePacoteCriptografiaDES(pacote: Pacote)</text><ellipse cx="1119" cy="83.9102" fill="#84BE84" rx="3" ry="3" style="stroke:#038048;stroke-width:1.0;"/><text fill="#000000" font-family="sans-serif" font-size="11" lengthAdjust="spacing" textLength="102" x="1128" y="87.5449">criptografar(): void</text><!--MD5=[70c9739d84ac7ad26a1a6082692b0f46]
class DecoradorDeAutenticaçãoSenha--><rect codeLine="159" fill="#FEFECE" filter="url(#f37nuhf9h1bbx)" height="86.8652" id="DecoradorDeAutenticaçãoSenha" style="stroke:#A80036;stroke-width:1.5;" width="378" x="7" y="7"/><ellipse cx="99.75" cy="23" fill="#ADD1B2" rx="11" ry="11" style="stroke:#A80036;stroke-width:1.0;"/><path d="M102.2231,29.1431 Q101.6421,29.4419 101.0029,29.5913 Q100.3638,29.7407 99.6582,29.7407 Q97.1514,29.7407 95.8315,28.0889 Q94.5117,26.437 94.5117,23.3159 Q94.5117,20.1865 95.8315,18.5347 Q97.1514,16.8828 99.6582,16.8828 Q100.3638,16.8828 101.0112,17.0322 Q101.6587,17.1816 102.2231,17.4805 L102.2231,20.2031 Q101.5923,19.6221 100.9988,19.3523 Q100.4053,19.0825 99.7744,19.0825 Q98.4297,19.0825 97.7449,20.1492 Q97.0601,21.2158 97.0601,23.3159 Q97.0601,25.4077 97.7449,26.4744 Q98.4297,27.541 99.7744,27.541 Q100.4053,27.541 100.9988,27.2712 Q101.5923,27.0015 102.2231,26.4204 Z " fill="#000000"/><text fill="#000000" font-family="sans-serif" font-size="12" lengthAdjust="spacing" textLength="184" x="120.25" y="27.5352">DecoradorDeAutenticaçãoSenha</text><line style="stroke:#A80036;stroke-width:1.5;" x1="8" x2="384" y1="39" y2="39"/><rect fill="none" height="6" style="stroke:#C82930;stroke-width:1.0;" width="6" x="15" y="47"/><text fill="#000000" font-family="sans-serif" font-size="11" lengthAdjust="spacing" textLength="116" x="27" y="53.6348">remetente: Remetente</text><line style="stroke:#A80036;stroke-width:1.5;" x1="8" x2="384" y1="59.9551" y2="59.9551"/><ellipse cx="18" cy="70.9551" fill="#84BE84" rx="3" ry="3" style="stroke:#038048;stroke-width:1.0;"/><text fill="#000000" font-family="sans-serif" font-size="11" lengthAdjust="spacing" textLength="352" x="27" y="74.5898">DecoradorDeAutenticaçãoCriptografiaSenha(remente: Remetente)</text><ellipse cx="18" cy="83.9102" fill="#84BE84" rx="3" ry="3" style="stroke:#038048;stroke-width:1.0;"/><text fill="#000000" font-family="sans-serif" font-size="11" lengthAdjust="spacing" textLength="91" x="27" y="87.5449">autenticar(): void</text><!--MD5=[620ef92eee5a3b4b321fb77679a9c56f]
class DecoradorDeAutenticaçãoToken--><rect codeLine="165" fill="#FEFECE" filter="url(#f37nuhf9h1bbx)" height="86.8652" id="DecoradorDeAutenticaçãoToken" style="stroke:#A80036;stroke-width:1.5;" width="314" x="420" y="7"/><ellipse cx="479.75" cy="23" fill="#ADD1B2" rx="11" ry="11" style="stroke:#A80036;stroke-width:1.0;"/><path d="M482.2231,29.1431 Q481.6421,29.4419 481.0029,29.5913 Q480.3638,29.7407 479.6582,29.7407 Q477.1514,29.7407 475.8315,28.0889 Q474.5117,26.437 474.5117,23.3159 Q474.5117,20.1865 475.8315,18.5347 Q477.1514,16.8828 479.6582,16.8828 Q480.3638,16.8828 481.0112,17.0322 Q481.6587,17.1816 482.2231,17.4805 L482.2231,20.2031 Q481.5923,19.6221 480.9988,19.3523 Q480.4053,19.0825 479.7744,19.0825 Q478.4297,19.0825 477.7449,20.1492 Q477.0601,21.2158 477.0601,23.3159 Q477.0601,25.4077 477.7449,26.4744 Q478.4297,27.541 479.7744,27.541 Q480.4053,27.541 480.9988,27.2712 Q481.5923,27.0015 482.2231,26.4204 Z " fill="#000000"/><text fill="#000000" font-family="sans-serif" font-size="12" lengthAdjust="spacing" textLength="186" x="500.25" y="27.5352">DecoradorDeAutenticaçãoToken</text><line style="stroke:#A80036;stroke-width:1.5;" x1="421" x2="733" y1="39" y2="39"/><rect fill="none" height="6" style="stroke:#C82930;stroke-width:1.0;" width="6" x="428" y="47"/><text fill="#000000" font-family="sans-serif" font-size="11" lengthAdjust="spacing" textLength="116" x="440" y="53.6348">remetente: Remetente</text><line style="stroke:#A80036;stroke-width:1.5;" x1="421" x2="733" y1="59.9551" y2="59.9551"/><ellipse cx="431" cy="70.9551" fill="#84BE84" rx="3" ry="3" style="stroke:#038048;stroke-width:1.0;"/><text fill="#000000" font-family="sans-serif" font-size="11" lengthAdjust="spacing" textLength="288" x="440" y="74.5898">DecoradorDeAutenticaçãoToken(remente: Remetente)</text><ellipse cx="431" cy="83.9102" fill="#84BE84" rx="3" ry="3" style="stroke:#038048;stroke-width:1.0;"/><text fill="#000000" font-family="sans-serif" font-size="11" lengthAdjust="spacing" textLength="91" x="440" y="87.5449">autenticar(): void</text><!--MD5=[3972d1f2dd835d96ed2d27ba558de47e]
link DecoradorDePacote to Pacote--><path codeLine="172" d="M1090,276.37 C1090,306.24 1090,352.92 1090,389.75 " fill="none" id="DecoradorDePacote-to-Pacote" style="stroke:#A80036;stroke-width:1.0;"/><polygon fill="none" points="1097,389.84,1090,409.84,1083,389.84,1097,389.84" style="stroke:#A80036;stroke-width:1.0;"/><!--MD5=[b0bc25f8b2ac4c759460bffc8bb2a551]
link DecoradorDeRemetente to Remetente--><path codeLine="173" d="M387,276.37 C387,302.74 387,342.22 387,376.45 " fill="none" id="DecoradorDeRemetente-to-Remetente" style="stroke:#A80036;stroke-width:1.0;"/><polygon fill="none" points="394,376.92,387,396.92,380,376.92,394,376.92" style="stroke:#A80036;stroke-width:1.0;"/><!--MD5=[84a69ba86fc46f437bee1720bf30de3d]
link DecoradorDePacoteCriptografiaRSA to DecoradorDePacote--><path codeLine="174" d="M958.51,94.33 C985.96,125.68 1023.11,168.12 1050.93,199.88 " fill="none" id="DecoradorDePacoteCriptografiaRSA-to-DecoradorDePacote" style="stroke:#A80036;stroke-width:1.0;"/><polygon fill="none" points="1056.22,195.3,1064.13,214.96,1045.69,204.52,1056.22,195.3" style="stroke:#A80036;stroke-width:1.0;"/><!--MD5=[d0f92c295c7d4dec56684cfe91b8487c]
link DecoradorDePacoteCriptografiaDES to DecoradorDePacote--><path codeLine="175" d="M1221.49,94.33 C1194.04,125.68 1156.89,168.12 1129.07,199.88 " fill="none" id="DecoradorDePacoteCriptografiaDES-to-DecoradorDePacote" style="stroke:#A80036;stroke-width:1.0;"/><polygon fill="none" points="1134.31,204.52,1115.87,214.96,1123.78,195.3,1134.31,204.52" style="stroke:#A80036;stroke-width:1.0;"/><!--MD5=[6c72f6dc922e55831bf895c9540c1e7e]
link DecoradorDeAutenticaçãoSenha to DecoradorDeRemetente--><path codeLine="176" d="M238.39,94.33 C269.56,125.83 311.79,168.5 343.27,200.31 " fill="none" id="DecoradorDeAutenticaçãoSenha-to-DecoradorDeRemetente" style="stroke:#A80036;stroke-width:1.0;"/><polygon fill="none" points="348.67,195.82,357.76,214.96,338.72,205.67,348.67,195.82" style="stroke:#A80036;stroke-width:1.0;"/><!--MD5=[77191bdede08d34bf6ab3cc9ee4179f3]
link DecoradorDeAutenticaçãoToken to DecoradorDeRemetente--><path codeLine="177" d="M534.83,94.33 C503.83,125.83 461.82,168.5 430.5,200.31 " fill="none" id="DecoradorDeAutenticaçãoToken-to-DecoradorDeRemetente" style="stroke:#A80036;stroke-width:1.0;"/><polygon fill="none" points="435.1,205.62,416.08,214.96,425.13,195.79,435.1,205.62" style="stroke:#A80036;stroke-width:1.0;"/><!--MD5=[3afa6692b4859b81978a1b993c398d22]
@startuml Decorators
interface Remetente {
    +connect(String: enderecoDeDestino): void
    +autenticar(): void
    +send(Pacote dados): void
    +close(): void 
}

interface Pacote {
    +prepararDados(String dados): void
    +criptografar(): void
}

abstract class DecoradorDePacote {
    +autenticar(): void
}

abstract class DecoradorDeRemetente {
    +criptografar(): void
}

class DecoradorDePacoteCriptografiaRSA {
    -pacote: Pacote
    +DecoradorDePacoteCriptografiaRSA(pacote: Pacote)
    +criptografar(): void
}

class DecoradorDePacoteCriptografiaDES {
    -pacote: Pacote
    +DecoradorDePacoteCriptografiaDES(pacote: Pacote)
    +criptografar(): void
}

class DecoradorDeAutenticaçãoSenha {
    -remetente: Remetente
    +DecoradorDeAutenticaçãoCriptografiaSenha(remente: Remetente)
    +autenticar(): void
}

class DecoradorDeAutenticaçãoToken {
    -remetente: Remetente
    +DecoradorDeAutenticaçãoToken(remente: Remetente)
    +autenticar(): void
}


DecoradorDePacote - - -^ Pacote
DecoradorDeRemetente - - -^ Remetente
DecoradorDePacoteCriptografiaRSA - - -^ DecoradorDePacote
DecoradorDePacoteCriptografiaDES - - -^ DecoradorDePacote
DecoradorDeAutenticaçãoSenha - - -^ DecoradorDeRemetente
DecoradorDeAutenticaçãoToken - - -^ DecoradorDeRemetente

@enduml

PlantUML version 1.2021.13(Mon Nov 01 12:38:45 CET 2021)
(GPL source distribution)
Java Runtime: OpenJDK Runtime Environment
JVM: OpenJDK 64-Bit Server VM
Default Encoding: UTF-8
Language: pt
Country: BR
--></g></svg>